<svg width="169" height="112" viewBox="0 0 169 112" fill="none" xmlns="http://www.w3.org/2000/svg">
<path d="M48.6702 108.959C45.1244 108.959 41.6949 108 38.3816 106.082C35.1265 104.164 32.627 101.635 30.8832 98.4961V108H28.093V42.6065H30.8832V78.7037C32.4526 75.3904 34.894 72.7456 38.2072 70.7693C41.5205 68.793 45.0081 67.8048 48.6702 67.8048C52.4485 67.8048 55.9071 68.7348 59.0459 70.5949C62.243 72.455 64.7715 74.9545 66.6316 78.0934C68.4917 81.2323 69.4217 84.6618 69.4217 88.382C69.4217 92.1021 68.4917 95.5316 66.6316 98.6705C64.7715 101.809 62.243 104.309 59.0459 106.169C55.9071 108.029 52.4485 108.959 48.6702 108.959ZM48.8446 106.518C52.0416 106.518 55.0061 105.704 57.7381 104.076C60.4701 102.391 62.6208 100.182 64.1902 97.4498C65.8178 94.6597 66.6316 91.6371 66.6316 88.382C66.6316 85.1849 65.8178 82.1914 64.1902 79.4012C62.5627 76.6111 60.3829 74.4023 57.6509 72.7747C54.9189 71.089 51.9544 70.2462 48.7574 70.2462C45.5604 70.2462 42.5668 71.089 39.7767 72.7747C37.0447 74.4604 34.8358 76.6983 33.1501 79.4884C31.5226 82.2786 30.7088 85.2721 30.7088 88.4691C30.7088 91.6662 31.5226 94.6597 33.1501 97.4498C34.8358 100.182 37.0737 102.391 39.8639 104.076C42.654 105.704 45.6475 106.518 48.8446 106.518ZM97.2548 106.605C100.277 106.605 103.155 105.82 105.887 104.251C108.619 102.681 110.886 100.531 112.688 97.7986V102.245C110.537 104.629 108.183 106.372 105.625 107.477C103.068 108.523 100.161 109.046 96.9061 109.046C93.3021 109.046 89.9017 108.087 86.7047 106.169C83.5658 104.251 81.0372 101.693 79.119 98.4961C77.2589 95.2991 76.3289 91.8987 76.3289 88.2948C76.3289 84.4002 77.2589 80.9126 79.119 77.8318C80.9791 74.6929 83.5077 72.2516 86.7047 70.5077C89.9598 68.7639 93.5637 67.892 97.5164 67.892C103.562 67.892 108.706 70.2752 112.949 75.0417L85.5712 102.071C87.4894 103.64 89.3495 104.803 91.1514 105.559C92.9534 106.256 94.9878 106.605 97.2548 106.605ZM79.119 88.0332C79.119 92.8578 80.7175 96.9848 83.9145 100.414L109.462 75.0417C107.543 73.356 105.683 72.1644 103.881 71.4668C102.079 70.7112 99.9287 70.3333 97.4292 70.3333C93.8834 70.3333 90.7155 71.1181 87.9253 72.6875C85.1934 74.1988 83.0426 76.2914 81.4732 78.9653C79.9037 81.6392 79.119 84.6618 79.119 88.0332ZM131.174 108.959C128.384 108.959 125.914 108.494 123.763 107.564C121.612 106.576 120.072 105.326 119.142 103.815V99.1937C120.246 101.693 121.758 103.553 123.676 104.774C125.594 105.936 128.035 106.518 131 106.518C133.848 106.518 136.144 105.646 137.888 103.902C139.632 102.1 140.504 99.804 140.504 97.0139C140.504 94.6307 140.01 92.7996 139.022 91.5208C138.033 90.1839 136.435 88.847 134.226 87.51L130.913 85.5918C128.529 84.1386 126.728 83.0052 125.507 82.1914C124.344 81.3195 123.414 80.3603 122.717 79.3141C122.019 78.2096 121.67 76.9308 121.67 75.4776C121.67 73.1525 122.484 71.2925 124.112 69.8974C125.739 68.5023 127.861 67.8048 130.477 67.8048C133.674 67.8048 136.348 68.5314 138.498 69.9846V73.821C136.696 71.4378 134.11 70.2462 130.738 70.2462C128.878 70.2462 127.367 70.7112 126.204 71.6412C125.042 72.5713 124.461 73.7629 124.461 75.2161C124.461 76.4949 124.809 77.6284 125.507 78.6165C126.204 79.5466 127.163 80.4185 128.384 81.2323C129.663 82.046 131.756 83.2667 134.662 84.8943C137.626 86.58 139.806 88.3238 141.201 90.1258C142.596 91.8696 143.294 94.1656 143.294 97.0139C143.294 100.618 142.102 103.524 139.719 105.733C137.394 107.884 134.546 108.959 131.174 108.959ZM166.021 108.523C161.719 108.523 158.145 107.215 155.296 104.6C152.506 101.984 151.111 98.3799 151.111 93.7878V52.9823H153.901V68.7639H165.934V71.2053H153.901V93.7878C153.901 97.6242 155.035 100.647 157.302 102.856C159.627 105.006 162.533 106.082 166.021 106.082V108.523Z" fill="white"/>
<line x1="10.85" y1="112" x2="10.85" y2="16" stroke="white" stroke-width="1.5"/>
<path d="M10.9307 0L13.3848 7.9463H21.3264L14.9015 12.8574L17.3556 20.8037L10.9307 15.8926L4.50579 20.8037L6.95989 12.8574L0.534986 7.9463H8.4766L10.9307 0Z" fill="white"/>
</svg>
