<svg width="169" height="112" viewBox="0 0 169 112" fill="none" xmlns="http://www.w3.org/2000/svg">
<path d="M49.0702 108.959C45.5244 108.959 42.0949 108 38.7816 106.082C35.5265 104.164 33.027 101.635 31.2832 98.4961V108H28.4931V42.6065H31.2832V78.7037C32.8526 75.3904 35.294 72.7456 38.6072 70.7693C41.9205 68.793 45.4082 67.8048 49.0702 67.8048C52.8485 67.8048 56.3071 68.7348 59.446 70.5949C62.643 72.455 65.1715 74.9545 67.0316 78.0934C68.8917 81.2323 69.8217 84.6618 69.8217 88.382C69.8217 92.1021 68.8917 95.5316 67.0316 98.6705C65.1715 101.809 62.643 104.309 59.446 106.169C56.3071 108.029 52.8485 108.959 49.0702 108.959ZM49.2446 106.518C52.4416 106.518 55.4061 105.704 58.1381 104.076C60.8701 102.391 63.0208 100.182 64.5903 97.4498C66.2178 94.6597 67.0316 91.6371 67.0316 88.382C67.0316 85.1849 66.2178 82.1914 64.5903 79.4012C62.9627 76.6111 60.7829 74.4023 58.0509 72.7747C55.3189 71.089 52.3544 70.2462 49.1574 70.2462C45.9604 70.2462 42.9668 71.089 40.1767 72.7747C37.4447 74.4604 35.2358 76.6983 33.5502 79.4884C31.9226 82.2786 31.1088 85.2721 31.1088 88.4691C31.1088 91.6662 31.9226 94.6597 33.5502 97.4498C35.2358 100.182 37.4738 102.391 40.2639 104.076C43.054 105.704 46.0476 106.518 49.2446 106.518ZM97.6548 106.605C100.677 106.605 103.555 105.82 106.287 104.251C109.019 102.681 111.286 100.531 113.088 97.7986V102.245C110.937 104.629 108.583 106.372 106.025 107.477C103.468 108.523 100.561 109.046 97.3061 109.046C93.7022 109.046 90.3017 108.087 87.1047 106.169C83.9658 104.251 81.4373 101.693 79.519 98.4961C77.659 95.2991 76.7289 91.8987 76.7289 88.2948C76.7289 84.4002 77.659 80.9126 79.519 77.8318C81.3791 74.6929 83.9077 72.2516 87.1047 70.5077C90.3598 68.7639 93.9637 67.892 97.9164 67.892C103.962 67.892 109.106 70.2752 113.349 75.0417L85.9712 102.071C87.8894 103.64 89.7495 104.803 91.5515 105.559C93.3534 106.256 95.3879 106.605 97.6548 106.605ZM79.519 88.0332C79.519 92.8578 81.1176 96.9848 84.3146 100.414L109.862 75.0417C107.943 73.356 106.083 72.1644 104.281 71.4668C102.479 70.7112 100.329 70.3333 97.8292 70.3333C94.2834 70.3333 91.1155 71.1181 88.3254 72.6875C85.5934 74.1988 83.4427 76.2914 81.8732 78.9653C80.3038 81.6392 79.519 84.6618 79.519 88.0332ZM131.574 108.959C128.784 108.959 126.314 108.494 124.163 107.564C122.012 106.576 120.472 105.326 119.542 103.815V99.1937C120.646 101.693 122.158 103.553 124.076 104.774C125.994 105.936 128.435 106.518 131.4 106.518C134.248 106.518 136.544 105.646 138.288 103.902C140.032 102.1 140.904 99.804 140.904 97.0139C140.904 94.6307 140.41 92.7996 139.422 91.5208C138.433 90.1839 136.835 88.847 134.626 87.51L131.313 85.5918C128.93 84.1386 127.128 83.0052 125.907 82.1914C124.744 81.3195 123.814 80.3603 123.117 79.3141C122.419 78.2096 122.07 76.9308 122.07 75.4776C122.07 73.1525 122.884 71.2925 124.512 69.8974C126.139 68.5023 128.261 67.8048 130.877 67.8048C134.074 67.8048 136.748 68.5314 138.898 69.9846V73.821C137.096 71.4378 134.51 70.2462 131.138 70.2462C129.278 70.2462 127.767 70.7112 126.604 71.6412C125.442 72.5713 124.861 73.7629 124.861 75.2161C124.861 76.4949 125.209 77.6284 125.907 78.6165C126.604 79.5466 127.564 80.4185 128.784 81.2323C130.063 82.046 132.156 83.2667 135.062 84.8943C138.026 86.58 140.206 88.3238 141.601 90.1258C142.996 91.8696 143.694 94.1656 143.694 97.0139C143.694 100.618 142.502 103.524 140.119 105.733C137.794 107.884 134.946 108.959 131.574 108.959ZM166.421 108.523C162.119 108.523 158.545 107.215 155.696 104.6C152.906 101.984 151.511 98.3799 151.511 93.7878V52.9823H154.301V68.7639H166.334V71.2053H154.301V93.7878C154.301 97.6242 155.435 100.647 157.702 102.856C160.027 105.006 162.933 106.082 166.421 106.082V108.523Z" fill="black"/>
<line x1="11.25" y1="112" x2="11.25" y2="16" stroke="black" stroke-width="1.5"/>
<path d="M11.3307 0L13.7848 7.9463H21.7264L15.3015 12.8574L17.7556 20.8037L11.3307 15.8926L4.90582 20.8037L7.35991 12.8574L0.935011 7.9463H8.87662L11.3307 0Z" fill="black"/>
</svg>
