<svg width="1085" height="737" viewBox="0 0 1085 737" fill="none" xmlns="http://www.w3.org/2000/svg">
<path d="M528.576 116.52C527.624 117.132 526.4 117.744 524.904 118.56C519.94 121.212 509.604 126.176 502.532 130.936C495.528 135.492 491.72 140.524 491.72 146.1C491.72 152.492 497.772 156.912 509.808 156.912C517.628 156.912 526.604 156.096 531.16 154.804V157.184C526.74 158 518.172 158.816 510.012 158.816C498.044 158.816 489.816 155.008 489.816 146.304C489.816 140.184 493.42 134.744 501.376 129.44C508.788 124.408 519.26 119.512 523.952 116.928C525.312 116.112 526.332 115.5 527.42 114.616L528.576 116.52ZM493.964 106.388C496.956 114.752 501.036 123.524 504.164 128.828L502.6 129.916C499.472 124.952 495.324 115.5 491.788 107.408L493.964 106.388ZM570.26 119.376C574.068 119.716 577.468 119.92 581.412 119.92C589.436 119.92 597.664 119.376 604.328 118.084V120.124C596.984 121.416 589.028 121.96 581.208 121.96C577.4 121.96 574.204 121.756 570.26 121.484V119.376ZM591.952 106.456C591.748 107.884 591.612 109.04 591.544 110.264C591.408 112.984 591.408 118.016 591.408 121.144C591.408 129.576 592.36 141.884 592.36 149.5C592.36 153.512 590.728 159.156 582.16 159.156C573.388 159.156 569.24 155.756 569.24 150.656C569.24 146.168 573.524 141.884 582.092 141.884C592.224 141.884 599.84 147.052 606.028 152.492L604.736 154.396C598.276 148.344 591.408 143.652 581.888 143.652C575.564 143.652 571.076 146.508 571.076 150.52C571.076 154.736 575.088 157.252 581.276 157.252C588.552 157.252 590.456 153.648 590.456 148.616C590.456 143.516 589.504 129.44 589.504 121.28C589.504 117.132 589.504 113.052 589.572 110.332C589.572 109.04 589.572 107.544 589.436 106.456H591.952ZM558.02 106.66C557.748 107.544 557.476 108.496 557.272 109.72C555.572 117.812 553.736 129.78 553.736 138.212C553.736 143.516 554.076 147.46 554.824 152.764C556.048 148.956 558.224 142.972 559.584 139.708L560.944 140.728C559.516 144.604 556.728 151.608 556.116 154.532C555.912 155.484 555.844 156.64 555.912 157.524C555.98 158.136 556.116 158.952 556.184 159.428L554.28 159.632C552.988 154.6 551.832 147.46 551.832 138.28C551.832 128.556 554.348 115.432 555.232 109.448C555.436 108.156 555.504 107.204 555.504 106.388L558.02 106.66Z" fill="black"/>
<path d="M103.608 211.144C103.416 211.528 103.16 212.68 103.032 213.448C102.136 218.184 100.984 229.256 100.984 238.856C100.984 245.32 102.712 253.512 104.568 259.144L102.648 259.784C100.856 254.088 99.192 245.448 99.192 238.6C99.192 229.384 100.664 218.12 101.112 213.384C101.176 212.36 101.24 211.528 101.24 211.08L103.608 211.144ZM94.392 219.912C104.76 219.912 117.368 218.696 125.304 217.032L125.368 219.144C115.704 220.744 103.864 221.768 94.456 221.768C92.344 221.768 87.352 221.576 85.112 221.384L85.048 219.144C87.224 219.592 92.792 219.912 94.392 219.912ZM120.12 225.544C119.864 226.12 119.672 226.632 119.416 227.336C115.448 239.432 109.24 248.584 101.944 254.472C97.848 257.736 93.176 259.656 89.656 259.656C85.88 259.656 83.128 257.288 83.128 252.936C83.128 244.424 91.32 235.848 100.152 232.2C104.44 230.472 109.56 229.512 113.08 229.512C125.304 229.512 131.704 236.68 131.704 244.552C131.704 253.832 124.92 261 110.904 263.304L109.688 261.512C120.44 260.36 129.72 254.664 129.72 244.424C129.72 237.448 123.832 231.176 113.4 231.176C108.472 231.176 103.672 232.648 100.28 234.12C92.216 237.512 85.24 245.512 85.24 252.936C85.24 256.072 86.904 257.608 89.592 257.608C92.92 257.608 96.952 256.136 101.304 252.552C108.024 246.92 114.168 238.792 117.432 226.824C117.56 226.248 117.752 225.608 117.816 224.904L120.12 225.544ZM146.104 222.216C148.088 222.472 150.136 222.6 153.272 222.6C159.224 222.6 166.648 222.216 175.224 219.336L175.288 221.448C168.248 223.368 160.632 224.52 153.208 224.456C151.032 224.456 148.28 224.392 146.232 224.328L146.104 222.216ZM166.584 210.952C165.816 213.832 164.6 219.592 163.32 223.304C160.12 232.52 154.104 243.848 148.92 250.632L146.808 249.48C152.44 243.208 158.52 231.688 161.336 223.496C162.552 219.976 163.96 214.728 164.152 210.696L166.584 210.952ZM181.752 230.536C181.624 233.096 181.56 234.312 181.624 236.104C181.752 240.648 182.328 250.504 182.328 255.432C182.328 259.72 179 263.368 172.28 263.368C166.136 263.368 160.952 261.256 160.952 255.56C160.952 249.992 166.84 247.432 172.344 247.432C182.648 247.432 190.264 252.552 195.512 256.776L194.296 258.568C189.048 253.96 181.688 249.096 172.472 249.096C166.776 249.096 162.808 251.848 162.808 255.496C162.808 259.08 165.688 261.512 172.152 261.512C178.424 261.512 180.6 258.312 180.6 254.92C180.6 249.032 179.896 237.96 179.768 230.536H181.752ZM196.344 230.536C193.144 227.656 186.552 223.944 182.456 222.024L183.48 220.552C188.152 222.6 194.808 226.632 197.56 228.872L196.344 230.536ZM229.368 211.4C229.048 212.424 228.664 214.408 228.472 215.496C227.512 220.36 226.36 227.016 224.568 233.288C222.264 242.504 217.912 255.88 214.712 262.28L212.408 261.512C216.312 254.728 220.472 242.12 222.84 233.032C224.376 227.208 226.232 218.184 226.68 215.24C226.872 214.024 227 212.296 226.936 211.144L229.368 211.4ZM217.336 223.176C223.608 223.176 233.4 222.152 240.952 220.104V222.152C233.016 223.88 223.736 224.968 217.208 224.968C214.712 224.968 212.536 224.904 210.104 224.712L210.04 222.728C212.792 223.112 215.288 223.176 217.336 223.176ZM237.688 230.984C240.824 230.728 244.728 230.536 248.76 230.536C252.6 230.536 256.504 230.664 259.704 231.048L259.576 233.096C256.248 232.648 252.664 232.392 249.016 232.392C245.432 232.392 241.528 232.648 237.688 233.032V230.984ZM236.856 246.024C236.216 248.392 235.896 250.312 235.896 252.232C235.896 255.432 237.432 259.208 248.76 259.208C252.856 259.208 257.208 258.76 260.536 257.992L260.472 260.168C257.144 260.68 252.92 261.064 248.696 261.064C239.352 261.064 234.104 258.568 234.104 252.36C234.104 250.44 234.36 248.712 234.936 245.832L236.856 246.024ZM292.216 211.656C292.088 212.36 291.96 213.064 291.832 213.96C291.576 215.688 290.68 222.216 289.592 226.888C287.352 235.848 283.384 249.48 275.576 262.024L273.528 261.192C280.504 251.912 285.944 234.632 287.608 227.016C288.76 222.6 289.784 216.52 289.848 211.464L292.216 211.656ZM314.168 220.04C318.2 224.84 324.024 236.168 326.328 241.928L324.536 242.888C322.424 236.872 316.92 225.864 312.504 221L314.168 220.04ZM272.056 226.632C273.784 226.696 274.936 226.696 276.664 226.632C281.08 226.504 294.968 225.032 298.872 225.032C303.544 225.032 308.088 226.376 308.088 234.44C308.088 242.12 306.936 252.104 304.312 257.224C302.392 261.32 299.576 262.024 296.12 262.024C293.688 262.024 290.616 261.512 288.76 261.064L288.44 258.824C291.32 259.784 294.392 260.104 296.312 260.104C298.872 260.104 301.112 259.72 302.712 256.264C305.016 251.208 306.168 242.312 306.168 234.76C306.168 228.168 302.968 226.76 298.808 226.76C294.008 226.76 281.08 228.232 276.792 228.552C275.704 228.68 273.72 228.872 272.376 229.064L272.056 226.632ZM316.792 210.312C318.392 212.552 320.76 216.328 322.232 219.144L320.376 220.04C319.16 217.48 316.792 213.512 315 211.144L316.792 210.312ZM323.32 208.072C325.048 210.376 327.608 214.344 328.952 216.84L327.096 217.736C325.624 214.856 323.512 211.272 321.592 208.904L323.32 208.072ZM364.391 261.832C361.191 261.832 357.351 260.168 354.215 257.608H354.023L353.703 261H351.783V210.184H354.087V225.16L353.895 231.944C357.415 229 361.575 226.44 365.799 226.44C374.951 226.44 379.367 233.224 379.367 243.656C379.367 255.112 372.455 261.832 364.391 261.832ZM364.583 259.72C371.751 259.72 376.935 253.064 376.935 243.656C376.935 235.08 373.863 228.552 365.607 228.552C362.151 228.552 358.247 230.664 354.087 234.376V255.176C357.927 258.504 361.895 259.72 364.583 259.72ZM402.2 261.832C393.688 261.832 386.776 255.24 386.776 244.232C386.776 233.224 393.816 226.44 401.304 226.44C409.112 226.44 414.04 232.008 414.04 241.992C414.04 242.696 414.04 243.4 413.912 244.296H389.208C389.208 253.192 394.392 259.72 402.328 259.72C406.168 259.72 409.048 258.504 411.608 256.648L412.632 258.632C410.072 260.168 407.192 261.832 402.2 261.832ZM389.208 242.184H411.8C411.8 233.032 407.64 228.552 401.304 228.552C395.288 228.552 389.912 233.672 389.208 242.184ZM431.406 261.832C426.35 261.832 422.126 259.72 419.118 257.224L420.59 255.368C423.406 257.8 426.542 259.72 431.534 259.72C437.166 259.72 440.046 256.456 440.046 252.616C440.046 248.2 435.566 246.216 431.598 244.808C426.478 242.952 420.974 241.032 420.974 235.208C420.974 230.536 424.622 226.44 431.598 226.44C434.99 226.44 438.574 227.848 440.942 229.896L439.598 231.624C437.358 229.96 434.99 228.552 431.47 228.552C425.902 228.552 423.342 231.752 423.342 235.08C423.342 239.112 427.182 240.648 431.214 242.184C436.59 244.232 442.414 245.896 442.414 252.488C442.414 257.48 438.51 261.832 431.406 261.832ZM458.987 261.832C452.715 261.832 451.051 257.928 451.051 252.04V229.384H445.674V227.592L451.051 227.272L451.307 217.416H453.291V227.272H463.275V229.384H453.291V252.36C453.291 256.712 454.251 259.72 459.179 259.72C460.458 259.72 462.251 259.208 463.467 258.632L464.235 260.552C462.251 261.256 460.139 261.832 458.987 261.832ZM529.816 221.96C528.92 222.536 527.768 223.112 526.36 223.88C521.688 226.376 511.96 231.048 505.304 235.528C498.712 239.816 495.128 244.552 495.128 249.8C495.128 255.816 500.824 259.976 512.152 259.976C519.512 259.976 527.96 259.208 532.248 257.992V260.232C528.088 261 520.024 261.768 512.344 261.768C501.08 261.768 493.336 258.184 493.336 249.992C493.336 244.232 496.728 239.112 504.216 234.12C511.192 229.384 521.048 224.776 525.464 222.344C526.744 221.576 527.704 221 528.728 220.168L529.816 221.96ZM497.24 212.424C500.056 220.296 503.896 228.552 506.84 233.544L505.368 234.568C502.424 229.896 498.52 221 495.192 213.384L497.24 212.424ZM586.584 209.096L587.736 207.688C591.128 208.712 595.16 210.568 597.208 212.232L596.056 213.896C594.008 212.168 590.04 210.184 586.584 209.096ZM553.048 214.92H603.352V216.776H553.048V214.92ZM557.208 222.408H577.56V224.328H557.208V222.408ZM559.064 229.96H560.92V241.544H559.064V229.96ZM593.752 221.32L595.608 221.768C592.088 232.584 585.816 241.224 578.136 247.048C577.816 246.664 576.984 246.088 576.536 245.768C584.344 240.2 590.424 231.624 593.752 221.32ZM578.584 207.816H580.504C581.464 229.512 592.28 245.768 599.64 245.704C601.496 245.64 602.136 243.272 602.456 237.128C602.904 237.512 603.672 237.832 604.248 238.024C603.8 245.192 602.648 247.56 599.576 247.56C590.616 247.624 579.736 229.512 578.584 207.816ZM559.064 229.96H575.896V242.952H559.064V241.032H573.976V231.816H559.064V229.96ZM562.968 249.352H564.824V261C564.824 262.472 565.528 262.856 569.368 262.856C571.16 262.856 581.528 262.856 584.024 262.856C587.224 262.856 587.736 262.024 587.992 255.112C588.504 255.496 589.208 255.752 589.848 255.88C589.464 263.112 588.696 264.776 584.152 264.776C582.936 264.776 570.648 264.776 569.56 264.776C564.376 264.776 562.968 264.264 562.968 261V249.352ZM566.936 246.92L568.152 245.64C572.696 247.368 577.816 250.504 580.312 253.064L579.032 254.6C576.536 252.04 571.416 248.84 566.936 246.92ZM590.04 250.952L591.512 249.864C596.504 253.256 601.752 258.44 603.992 262.28L602.392 263.432C600.28 259.528 595.096 254.408 590.04 250.952ZM555.288 250.184L556.888 250.76C555.16 255.752 552.472 261.064 547.736 264.136L546.2 263.112C550.872 260.168 553.752 254.984 555.288 250.184ZM552.088 214.92H554.008V224.392C554.008 231.368 552.92 241.096 547.288 248.264C547.032 247.816 546.264 247.176 545.816 246.984C551.256 240.072 552.088 230.984 552.088 224.392V214.92ZM645.08 217.864C646.488 219.848 649.688 224.84 651.224 228.04L649.432 228.936C648.088 226.184 645.208 221.256 643.352 218.696L645.08 217.864ZM653.016 214.856C654.488 216.776 657.752 221.832 659.352 224.904L657.56 225.8C656.216 223.112 653.272 218.184 651.352 215.688L653.016 214.856ZM626.136 212.552C625.88 214.088 625.816 215.24 625.752 216.904C625.496 224.456 624.984 240.456 624.984 251.592C624.984 259.208 629.976 262.024 637.144 262.024C650.008 262.024 656.6 254.984 661.144 248.648L662.552 250.248C657.944 256.264 650.456 263.816 636.952 263.816C629.016 263.816 623.064 260.808 623.064 250.824C623.064 240.456 623.768 224.84 623.768 216.904C623.768 215.24 623.704 213.768 623.448 212.552H626.136ZM697.368 211.4C697.048 212.424 696.664 214.408 696.472 215.496C695.512 220.36 694.36 227.016 692.568 233.288C690.264 242.504 685.912 255.88 682.712 262.28L680.408 261.512C684.312 254.728 688.472 242.12 690.84 233.032C692.376 227.208 694.232 218.184 694.68 215.24C694.872 214.024 695 212.296 694.936 211.144L697.368 211.4ZM685.336 223.176C691.608 223.176 701.4 222.152 708.952 220.104V222.152C701.016 223.88 691.736 224.968 685.208 224.968C682.712 224.968 680.536 224.904 678.104 224.712L678.04 222.728C680.792 223.112 683.288 223.176 685.336 223.176ZM705.688 230.984C708.824 230.728 712.728 230.536 716.76 230.536C720.6 230.536 724.504 230.664 727.704 231.048L727.576 233.096C724.248 232.648 720.664 232.392 717.016 232.392C713.432 232.392 709.528 232.648 705.688 233.032V230.984ZM704.856 246.024C704.216 248.392 703.896 250.312 703.896 252.232C703.896 255.432 705.432 259.208 716.76 259.208C720.856 259.208 725.208 258.76 728.536 257.992L728.472 260.168C725.144 260.68 720.92 261.064 716.696 261.064C707.352 261.064 702.104 258.568 702.104 252.36C702.104 250.44 702.36 248.712 702.936 245.832L704.856 246.024ZM117.24 300.24H136.44V302.16H119.16V342.096H117.24V300.24ZM165.624 304.656C165.368 305.744 165.24 306.768 165.112 307.92C164.152 316.688 161.464 334.992 161.464 342.352C161.464 349.456 165.24 354.192 173.56 354.192C184.056 354.192 191.544 349.84 191.544 341.84C191.544 337.552 189.368 332.176 184.12 328.144L186.424 327.696C190.968 332.048 193.336 336.464 193.336 341.968C193.336 351.376 185.016 355.984 173.688 355.984C166.456 355.984 159.544 352.72 159.544 342.544C159.544 335.376 162.424 316.624 163.192 307.856C163.32 306.384 163.32 305.36 163.192 304.464L165.624 304.656ZM147.448 313.744C152.696 315.344 160.056 316.176 164.92 316.176C169.784 316.176 174.072 315.984 178.36 315.408V317.392C173.944 317.776 169.976 317.968 164.984 317.968C160.184 317.968 152.632 317.072 147.256 315.728L147.448 313.744ZM145.72 329.68C151.16 331.664 158.712 332.368 164.088 332.368C168.952 332.368 173.112 332.304 177.912 331.536V333.648C172.92 334.16 168.76 334.288 164.152 334.288C158.712 334.288 151.416 333.648 145.592 331.728L145.72 329.68ZM237.304 310.48C236.536 317.264 235.256 324.816 233.464 330.896C229.496 344.272 224.824 349.84 219.96 349.84C215.672 349.84 210.168 344.656 210.168 334.288C210.168 321.232 222.008 309.648 236.728 309.648C250.872 309.648 259.896 319.76 259.896 331.728C259.896 345.104 250.488 353.488 236.216 354.96L235.128 353.04C236.728 352.976 238.84 352.72 240.12 352.464C248.376 350.736 258.104 344.336 258.104 331.6C258.104 321.104 250.232 311.44 236.728 311.44C222.136 311.44 211.96 323.472 211.96 334.224C211.96 343.888 216.76 347.92 220.088 347.92C223.352 347.92 227.768 343.376 231.608 330.384C233.464 324.176 234.808 317.136 235.384 310.544L237.304 310.48ZM288.76 359.12H269.56V357.2H286.84V317.264H288.76V359.12ZM373.24 300.24H392.44V302.16H375.16V342.096H373.24V300.24ZM415.736 327.632H455.864V329.552H415.736V327.632ZM423.224 335.44H452.664V337.296H423.224V335.44ZM427 328.4L428.792 328.912C425.464 335.76 419.576 341.84 413.816 345.808C413.56 345.488 412.856 344.784 412.344 344.464C418.232 340.688 423.8 334.928 427 328.4ZM452.088 335.44H454.008C454.008 335.44 453.944 336.208 453.88 336.656C452.792 350.672 451.768 355.536 450.04 357.328C449.208 358.16 448.312 358.352 446.904 358.416C445.624 358.416 443.128 358.416 440.696 358.224C440.696 357.712 440.504 356.88 440.184 356.368C443 356.624 445.56 356.688 446.52 356.688C447.48 356.688 448.056 356.624 448.504 356.048C449.976 354.704 451 349.52 452.088 335.888V335.44ZM424.632 313.872V320.976H449.272V313.872H424.632ZM424.632 304.912V311.952H449.272V304.912H424.632ZM422.712 303.056H451.128V322.896H422.712V303.056ZM398.904 315.088H417.272V317.008H398.904V315.088ZM407.416 301.072H409.336V339.984H407.416V301.072ZM397.88 343.696C402.744 341.52 410.04 337.936 417.272 334.416L417.72 336.272C411.064 339.536 403.96 342.992 398.776 345.552L397.88 343.696ZM443.064 335.696L444.6 336.464C442.232 345.04 436.984 354.256 431.032 358.736C430.712 358.288 430.008 357.776 429.432 357.52C435.32 353.296 440.76 344.08 443.064 335.696ZM432.76 335.952L434.296 336.784C430.968 344.144 424.248 352.016 417.848 356.048C417.528 355.6 416.952 355.024 416.44 354.64C422.712 350.992 429.56 343.12 432.76 335.952ZM463.416 304.784H490.232V306.64H463.416V304.784ZM494.072 322.768H520.376V324.624H494.072V322.768ZM510.072 323.536H511.928V358.48H510.072V323.536ZM493.432 307.792L496.248 308.752C496.184 309.072 495.928 309.264 495.352 309.328V324.112C495.352 334.48 494.072 347.984 485.048 358.288C484.728 357.904 484.088 357.264 483.576 357.008C492.408 347.152 493.432 334.224 493.432 324.112V307.792ZM466.104 315.216H467.96V333.392C467.96 341.072 467.256 351.312 462.392 358.544C462.072 358.16 461.368 357.584 460.92 357.328C465.592 350.352 466.104 340.752 466.104 333.392V315.216ZM516.472 301.712L518.2 303.184C512.376 306 502.904 308.624 494.712 310.544C494.584 310.096 494.264 309.456 493.944 308.944C502.008 307.088 511.48 304.4 516.472 301.712ZM467.192 315.216H488.312V333.264H467.192V331.408H486.392V317.136H467.192V315.216ZM544.76 359.12H525.56V357.2H542.84V317.264H544.76V359.12ZM629.24 300.24H648.44V302.16H631.16V342.096H629.24V300.24ZM668.92 301.072L670.712 301.52C667.064 312.272 661.56 322.448 655.48 329.616C655.224 329.232 654.52 328.464 654.008 328.08C660.024 321.424 665.528 311.312 668.92 301.072ZM662.52 316.368L664.248 314.576L664.376 314.64V358.352H662.52V316.368ZM689.08 300.944H690.936V358.224H689.08V300.944ZM669.176 315.28H711.608V317.2H669.176V315.28ZM676.408 343.568H703.032V345.488H676.408V343.568ZM692.856 315.92C696.76 327.952 704.376 340.112 712.376 345.616C711.864 345.936 711.224 346.64 710.776 347.152C702.84 341.2 695.16 328.848 691.064 316.496L692.856 315.92ZM687.416 315.984L689.016 316.56C684.728 328.976 676.792 341.136 668.984 347.344C668.728 346.832 668.088 346.192 667.576 345.872C675.32 340.24 683.256 327.952 687.416 315.984ZM747.768 327.76V338.768H771.512V327.76H747.768ZM745.848 325.904H773.432V340.624H745.848V325.904ZM759.544 302.8C756.28 308.688 750.264 315.152 743.672 319.376C743.416 318.992 742.84 318.352 742.392 317.968C748.984 314 755.384 307.344 758.392 300.944H760.44C764.344 307.664 771.192 314 777.208 317.456C776.824 317.84 776.312 318.544 776.056 318.992C769.912 315.088 763.384 308.944 759.544 302.8ZM758.52 318.096H760.44V331.92C760.44 341.904 758.648 351.504 743.864 358.416C743.608 358.032 743.032 357.328 742.584 357.008C757.048 350.352 758.52 341.136 758.52 331.92V318.096ZM761.528 339.344C763.832 347.728 769.016 354.064 776.568 356.816C776.12 357.2 775.544 357.904 775.224 358.416C767.544 355.216 762.168 348.624 759.8 339.792L761.528 339.344ZM749.752 317.136H769.848V318.992H749.752V317.136ZM722.424 313.36H741.944V315.216H722.424V313.36ZM722.424 322.896H741.944V324.752H722.424V322.896ZM721.4 332.688H742.328V334.544H721.4V332.688ZM731.448 304.592H733.304V333.648H731.448V304.592ZM734.2 338.448L735.736 337.808C737.464 340.432 739.256 343.952 740.024 346.192L738.36 346.96C737.656 344.592 735.928 341.072 734.2 338.448ZM729.912 339.664L731.512 339.28C732.984 342.48 734.328 346.704 734.712 349.456L732.984 349.968C732.664 347.216 731.384 342.928 729.912 339.664ZM725.176 340.432L726.84 340.176C727.672 343.952 728.184 348.752 728.184 351.888L726.392 352.144C726.456 348.944 725.944 344.208 725.176 340.432ZM720.888 339.664L722.616 339.984C722.296 345.552 721.592 351.696 719.16 355.024L717.624 354.064C719.928 350.928 720.632 345.04 720.888 339.664ZM721.4 303.824H743.416V305.68H723.32V333.648H721.4V303.824ZM741.496 332.688H743.352C743.352 332.688 743.352 333.52 743.288 333.904C742.52 350.224 741.816 355.472 740.216 357.328C739.448 358.16 738.616 358.48 737.144 358.48C735.992 358.544 733.56 358.48 731.32 358.288C731.256 357.776 731.128 357.008 730.808 356.496C733.432 356.688 735.992 356.752 736.824 356.752C737.72 356.752 738.232 356.688 738.68 356.112C739.896 354.704 740.728 349.008 741.496 333.072V332.688ZM800.76 359.12H781.56V357.2H798.84V317.264H800.76V359.12ZM850.104 315.216C852.088 315.472 854.136 315.6 857.272 315.6C863.224 315.6 870.648 315.216 879.224 312.336L879.288 314.448C872.248 316.368 864.632 317.52 857.208 317.456C855.032 317.456 852.28 317.392 850.232 317.328L850.104 315.216ZM870.584 303.952C869.816 306.832 868.6 312.592 867.32 316.304C864.12 325.52 858.104 336.848 852.92 343.632L850.808 342.48C856.44 336.208 862.52 324.688 865.336 316.496C866.552 312.976 867.96 307.728 868.152 303.696L870.584 303.952ZM885.752 323.536C885.624 326.096 885.56 327.312 885.624 329.104C885.752 333.648 886.328 343.504 886.328 348.432C886.328 352.72 883 356.368 876.28 356.368C870.136 356.368 864.952 354.256 864.952 348.56C864.952 342.992 870.84 340.432 876.344 340.432C886.648 340.432 894.264 345.552 899.512 349.776L898.296 351.568C893.048 346.96 885.688 342.096 876.472 342.096C870.776 342.096 866.808 344.848 866.808 348.496C866.808 352.08 869.688 354.512 876.152 354.512C882.424 354.512 884.6 351.312 884.6 347.92C884.6 342.032 883.896 330.96 883.768 323.536H885.752ZM900.344 323.536C897.144 320.656 890.552 316.944 886.456 315.024L887.48 313.552C892.152 315.6 898.808 319.632 901.56 321.872L900.344 323.536ZM954.808 316.432C953.912 317.008 952.76 317.584 951.352 318.352C946.68 320.848 938.424 324.752 931.768 329.232C925.176 333.52 921.592 338.256 921.592 343.504C921.592 349.52 927.288 353.68 938.616 353.68C945.976 353.68 954.424 352.912 958.712 351.696V353.936C954.552 354.704 946.488 355.472 938.808 355.472C927.544 355.472 919.8 351.888 919.8 343.696C919.8 337.936 923.192 332.816 930.68 327.824C937.656 323.088 946.04 319.248 950.456 316.816C951.736 316.048 952.696 315.472 953.72 314.64L954.808 316.432ZM923.704 306.128C926.52 314 930.36 322.256 933.304 327.248L931.832 328.272C928.888 323.6 924.984 314.704 921.656 307.088L923.704 306.128ZM956.216 305.808C957.816 308.112 960.184 311.824 961.592 314.704L959.8 315.6C958.584 312.976 956.216 309.072 954.424 306.64L956.216 305.808ZM962.744 303.568C964.472 305.872 967.032 309.84 968.312 312.336L966.52 313.232C965.048 310.352 962.936 306.768 961.016 304.4L962.744 303.568ZM998.776 304.144C998.2 306.832 997.624 310.032 996.024 314.064C994.232 318.672 991.288 323.664 988.024 327.76C991.224 325.52 995.192 324.24 998.584 324.24C1003.19 324.24 1006.84 326.928 1006.84 331.408C1006.84 334.544 1006.9 342.352 1006.97 346.192H1004.79C1004.98 342.416 1004.98 334.672 1004.92 331.536C1004.86 328.144 1002.23 326.096 998.264 326.096C993.656 326.096 989.56 328.016 986.168 331.024C984.376 332.624 982.584 334.992 980.472 337.36L978.552 336.016C988.792 325.84 992.44 317.968 994.104 314.128C995.64 310.544 996.536 306.768 996.728 303.952L998.776 304.144ZM979.064 312.016C982.648 312.464 986.808 312.656 989.432 312.656C998.264 312.656 1008.82 312.016 1017.59 310.48V312.528C1008.76 314 997.816 314.512 989.304 314.512C986.424 314.512 982.648 314.384 979.064 314.192V312.016ZM1026.17 324.752C1024.89 325.136 1023.74 325.648 1022.46 326.16C1017.59 328.08 1011.13 330.64 1004.79 334.032C997.88 337.616 992.056 341.776 992.056 347.088C992.056 353.552 998.904 354.128 1005.88 354.128C1010.42 354.128 1017.02 353.68 1022.65 352.848L1022.58 354.896C1017.14 355.536 1010.74 355.984 1005.69 355.984C997.432 355.984 990.2 354.512 990.2 347.216C990.2 340.56 996.984 336.208 1004.54 332.24C1010.74 328.976 1017.08 326.544 1021.75 324.368C1023.1 323.728 1023.99 323.344 1025.14 322.704L1026.17 324.752ZM106.36 396.568H108.28V402.904C108.28 407.96 106.68 414.488 100.088 419.16C99.768 418.712 99.128 418.072 98.68 417.816C105.08 413.464 106.36 407.512 106.36 402.904V396.568ZM107.512 396.568H124.728V398.424H107.512V396.568ZM124.088 396.568H125.944V413.4C125.944 414.488 126.2 414.744 127.672 414.744C128.376 414.744 131.896 414.744 132.856 414.744C134.328 414.744 134.584 413.784 134.712 406.104C135.224 406.552 135.992 406.808 136.568 407C136.44 414.808 135.864 416.664 133.048 416.664C132.408 416.664 128.248 416.664 127.608 416.664C124.792 416.664 124.088 416.088 124.088 413.336V396.568ZM102.136 421.784H130.104V423.64H102.136V421.784ZM129.656 421.784H130.104L130.488 421.656L131.64 422.36C126.072 438.616 111.544 447.768 97.592 451.608C97.4 451.096 96.888 450.328 96.504 449.944C110.072 446.488 124.472 437.4 129.656 422.232V421.784ZM106.552 423.576C111.288 437.08 121.848 446.488 136.824 449.88C136.376 450.328 135.8 451.032 135.48 451.544C120.504 447.832 109.752 438.296 104.824 424.152L106.552 423.576ZM77.752 429.656C83.064 427.928 90.936 424.984 98.616 422.168L99 423.832C91.832 426.584 84.344 429.464 78.776 431.576L77.752 429.656ZM78.392 407.256H98.808V409.112H78.392V407.256ZM88.952 393.88H90.808V448.408C90.808 450.136 90.232 450.84 89.08 451.16C87.864 451.48 85.752 451.544 81.72 451.48C81.592 451.096 81.208 450.264 80.888 449.688C84.216 449.752 86.904 449.752 87.736 449.688C88.568 449.688 88.952 449.432 88.952 448.472V393.88ZM180.536 393.944H182.392V401.816H180.536V393.944ZM164.152 400.856H198.904V402.712H164.152V400.856ZM171.512 409.304V417.816H191.864V409.304H171.512ZM169.592 407.384H193.784V419.736H169.592V407.384ZM164.728 424.536H197.496V426.392H166.584V451.288H164.728V424.536ZM196.664 424.536H198.52V448.664C198.52 450.072 198.2 450.712 197.048 451.096C195.896 451.416 193.656 451.416 189.624 451.416C189.496 450.968 189.112 450.2 188.792 449.688C192.184 449.752 194.808 449.752 195.64 449.688C196.408 449.624 196.664 449.432 196.664 448.728V424.536ZM173.176 431.512H175.096V447.064H173.176V431.512ZM174.136 431.512H190.2V443.928H174.136V442.008H188.28V433.368H174.136V431.512ZM152.888 398.168H154.744V451.544H152.888V398.168ZM142.456 411.224H163.96V413.144H142.456V411.224ZM152.888 411.864L154.36 412.376C152.056 421.144 147.256 432.344 142.904 437.848C142.584 437.4 142.008 436.696 141.56 436.376C145.72 431.192 150.648 420.504 152.888 411.864ZM161.208 395.032L163 396.44C158.2 398.488 150.072 400.152 143.352 401.048C143.224 400.664 142.904 400.024 142.584 399.512C149.176 398.488 157.24 396.952 161.208 395.032ZM154.488 416.6C155.96 418.072 161.336 424.728 162.552 426.392L161.08 427.8C159.864 425.624 154.936 419.16 153.4 417.432L154.488 416.6ZM222.776 398.04C222.52 399.576 222.456 400.728 222.392 402.392C222.136 409.944 221.624 425.944 221.624 437.08C221.624 444.696 226.616 447.512 233.784 447.512C246.648 447.512 253.24 440.472 257.784 434.136L259.192 435.736C254.584 441.752 247.096 449.304 233.592 449.304C225.656 449.304 219.704 446.296 219.704 436.312C219.704 425.944 220.408 410.328 220.408 402.392C220.408 400.728 220.344 399.256 220.088 398.04H222.776ZM271.335 405.976C273.703 405.912 275.239 405.784 276.519 405.656C279.463 405.272 293.095 403.8 304.935 402.84C312.295 402.2 317.287 401.88 321.319 401.752V403.736C317.415 403.672 311.719 403.8 308.647 404.888C298.087 408.728 292.775 419.928 292.775 427.48C292.775 441.944 306.279 446.104 316.263 446.36L315.559 448.152C305.255 448.088 290.983 442.712 290.983 427.992C290.983 417.24 297.958 408.216 305.383 404.504C297.639 405.336 278.119 407.128 271.655 408.408L271.335 405.976ZM370.261 398.68C369.557 399.32 367.701 401.048 367.061 401.624C362.453 405.976 352.469 413.976 347.285 418.2C342.997 421.912 342.805 423.128 347.605 427.032C354.453 432.536 364.949 441.24 371.989 448.536L370.325 450.008C369.429 448.984 368.341 447.832 367.125 446.616C361.941 441.432 351.957 432.856 345.877 427.928C340.117 423.256 341.077 421.208 346.197 416.792C350.869 412.824 361.493 404.568 365.845 400.024C366.549 399.256 367.765 397.72 368.213 396.888L370.261 398.68ZM415.573 398.488C415.253 399.512 414.869 401.496 414.677 402.584C413.717 407.448 412.565 414.104 410.773 420.376C408.469 429.592 404.117 442.968 400.917 449.368L398.613 448.6C402.517 441.816 406.677 429.208 409.045 420.12C410.581 414.296 412.437 405.272 412.885 402.328C413.077 401.112 413.205 399.384 413.141 398.232L415.573 398.488ZM403.541 410.264C409.813 410.264 419.605 409.24 427.157 407.192V409.24C419.221 410.968 409.941 412.056 403.413 412.056C400.917 412.056 398.741 411.992 396.309 411.8L396.245 409.816C398.997 410.2 401.493 410.264 403.541 410.264ZM423.893 418.072C427.029 417.816 430.933 417.624 434.965 417.624C438.805 417.624 442.709 417.752 445.909 418.136L445.781 420.184C442.453 419.736 438.869 419.48 435.221 419.48C431.637 419.48 427.733 419.736 423.893 420.12V418.072ZM423.061 433.112C422.421 435.48 422.101 437.4 422.101 439.32C422.101 442.52 423.637 446.296 434.965 446.296C439.061 446.296 443.413 445.848 446.741 445.08L446.677 447.256C443.349 447.768 439.125 448.152 434.901 448.152C425.557 448.152 420.309 445.656 420.309 439.448C420.309 437.528 420.565 435.8 421.141 432.92L423.061 433.112ZM438.869 400.536C440.533 402.776 442.901 406.552 444.309 409.368L442.517 410.264C441.301 407.704 438.869 403.736 437.141 401.368L438.869 400.536ZM445.397 398.232C447.189 400.6 449.749 404.504 451.029 407.064L449.237 407.96C447.765 405.016 445.589 401.496 443.733 399.064L445.397 398.232ZM489.749 401.688C489.365 400.408 488.981 398.808 488.533 397.528L490.837 397.208C491.093 399.704 492.821 405.656 494.293 409.88C496.277 415.576 499.797 421.912 503.125 426.456C503.765 427.352 504.533 428.184 505.301 428.952L504.021 430.488C501.461 429.72 494.037 429.144 490.197 428.952L490.325 427.224C494.357 427.544 499.605 427.992 502.229 428.312C499.093 423.96 494.933 416.6 492.629 410.328C491.221 406.488 490.325 403.608 489.749 401.688ZM466.197 408.664C475.605 409.752 486.037 409.88 493.013 409.176C497.429 408.728 504.469 407.512 509.397 405.656L509.589 407.704C504.725 409.112 498.005 410.2 493.781 410.712C486.037 411.608 475.797 411.48 466.325 410.712L466.197 408.664ZM473.109 427.672C471.381 430.808 470.165 433.496 470.165 436.824C470.165 443.608 476.501 446.68 486.741 446.808C492.757 446.872 498.197 446.296 502.613 445.208V447.32C498.261 448.088 493.205 448.664 486.677 448.6C475.477 448.472 468.309 444.76 468.309 436.632C468.309 433.432 469.653 430.424 471.125 427.224L473.109 427.672ZM531.093 403.416C530.965 404.184 530.837 406.488 530.773 408.024C530.645 411.864 530.773 418.84 531.285 424.728C532.501 436.888 536.789 444.76 541.909 444.76C545.365 444.76 548.885 439.064 550.997 431.32L552.597 432.664C549.141 443.16 545.365 446.744 541.845 446.744C536.789 446.744 531.285 440.984 529.557 424.984C528.981 419.8 528.853 411.736 528.853 408.216C528.853 407 528.853 404.312 528.533 403.288L531.093 403.416ZM565.717 405.528C571.093 413.016 575.381 424.216 576.597 436.056L574.741 436.888C573.461 424.152 569.109 413.336 563.925 406.296L565.717 405.528ZM595.605 431.64C600.661 431.64 604.757 435.736 604.757 440.792C604.757 445.848 600.661 449.944 595.605 449.944C590.613 449.944 586.453 445.848 586.453 440.792C586.453 435.736 590.613 431.64 595.605 431.64ZM595.605 448.024C599.637 448.024 602.837 444.824 602.837 440.792C602.837 436.824 599.637 433.56 595.605 433.56C591.637 433.56 588.373 436.824 588.373 440.792C588.373 444.824 591.637 448.024 595.605 448.024ZM110.072 490.144C109.944 491.104 109.88 492.064 109.816 494.176C109.752 496.032 109.816 504.096 109.816 509.472C109.816 519.392 110.648 530.208 110.648 533.728C110.648 537.184 108.92 541.984 100.664 541.984C92.472 541.984 87.8 539.36 87.8 533.792C87.8 528.608 92.984 525.28 101.624 525.28C114.552 525.28 125.112 532.96 129.72 536.608L128.44 538.528C122.936 533.664 113.336 527.072 101.432 527.072C93.688 527.072 89.592 530.08 89.592 533.728C89.592 537.248 92.408 540.192 100.664 540.192C104.632 540.192 108.6 538.912 108.6 533.728C108.6 527.712 108.024 514.592 108.024 509.472C108.024 504.096 108.024 498.848 108.024 493.472C108.024 492.448 107.96 490.656 107.896 490.144H110.072ZM87.672 498.08C91.384 498.848 99.96 499.488 104.568 499.488C112.12 499.488 120.888 498.784 128.184 497.568V499.616C120.312 500.384 112.12 501.28 104.632 501.28C99.832 501.28 91.512 500.64 87.672 500.192V498.08ZM87.416 511.456C92.344 512.16 99.128 512.608 104.184 512.608C110.904 512.608 119.672 512.096 128.44 510.624V512.672C119.864 513.888 111.288 514.4 104.184 514.4C99.192 514.4 92.344 514.016 87.416 513.504V511.456ZM165.368 490.4C165.048 491.424 164.664 493.408 164.472 494.496C163.512 499.36 162.36 506.016 160.568 512.288C158.264 521.504 153.912 534.88 150.712 541.28L148.408 540.512C152.312 533.728 156.472 521.12 158.84 512.032C160.376 506.208 162.232 497.184 162.68 494.24C162.872 493.024 163 491.296 162.936 490.144L165.368 490.4ZM153.336 502.176C159.608 502.176 169.4 501.152 176.952 499.104V501.152C169.016 502.88 159.736 503.968 153.208 503.968C150.712 503.968 148.536 503.904 146.104 503.712L146.04 501.728C148.792 502.112 151.288 502.176 153.336 502.176ZM173.688 509.984C176.824 509.728 180.728 509.536 184.76 509.536C188.6 509.536 192.504 509.664 195.704 510.048L195.576 512.096C192.248 511.648 188.664 511.392 185.016 511.392C181.432 511.392 177.528 511.648 173.688 512.032V509.984ZM172.856 525.024C172.216 527.392 171.896 529.312 171.896 531.232C171.896 534.432 173.432 538.208 184.76 538.208C188.856 538.208 193.208 537.76 196.536 536.992L196.472 539.168C193.144 539.68 188.92 540.064 184.696 540.064C175.352 540.064 170.104 537.568 170.104 531.36C170.104 529.44 170.36 527.712 170.936 524.832L172.856 525.024ZM243.448 486.816H245.368V531.168H243.448V486.816ZM220.472 514.4L259.448 499.36L260.216 501.088L221.176 516.128L220.472 514.4ZM228.856 492.448H230.712V537.376C230.712 540.896 231.8 541.92 236.664 541.92C239.16 541.92 253.24 541.92 256.632 541.92C260.792 541.92 261.432 539.936 261.88 532.128C262.456 532.512 263.224 532.896 263.864 533.024C263.288 541.152 262.456 543.776 256.312 543.776C254.84 543.776 238.456 543.776 236.984 543.776C230.776 543.776 228.856 542.56 228.856 537.312V492.448ZM258.808 500.256H258.168L259.064 499.296L259.448 498.848L260.856 499.552L260.728 500C260.728 512.096 260.472 522.784 259.64 525.536C258.936 528.16 257.4 528.928 255.608 528.992C254.008 529.056 251.448 529.056 249.848 528.992C249.72 528.416 249.464 527.712 249.144 527.136C251.32 527.264 254.136 527.2 255.032 527.2C256.376 527.2 257.272 526.88 257.848 524.832C258.616 522.208 258.808 511.84 258.808 500.256ZM221.624 487.072L223.416 487.584C219.128 498.336 212.664 508.512 205.816 515.552C205.56 515.168 204.92 514.4 204.472 514.08C211.32 507.488 217.72 497.376 221.624 487.072ZM214.52 502.368L216.248 500.576L216.376 500.64V544.352H214.52V502.368ZM301.304 496.48C300.536 503.264 299.256 510.816 297.464 516.896C293.496 530.272 288.824 535.84 283.96 535.84C279.672 535.84 274.168 530.656 274.168 520.288C274.168 507.232 286.008 495.648 300.728 495.648C314.872 495.648 323.896 505.76 323.896 517.728C323.896 531.104 314.488 539.488 300.216 540.96L299.128 539.04C300.728 538.976 302.84 538.72 304.12 538.464C312.376 536.736 322.104 530.336 322.104 517.6C322.104 507.104 314.232 497.44 300.728 497.44C286.136 497.44 275.96 509.472 275.96 520.224C275.96 529.888 280.76 533.92 284.088 533.92C287.352 533.92 291.768 529.376 295.608 516.384C297.464 510.176 298.808 503.136 299.384 496.544L301.304 496.48ZM361.72 489.248H363.64C363.128 498.528 362.04 531.168 335.224 543.904C334.904 543.456 334.264 542.88 333.88 542.56C360.44 530.144 361.336 497.824 361.72 489.248ZM363.448 490.144C363.704 494.56 366.072 530.592 392.568 542.432C392.12 542.752 391.48 543.456 391.096 543.968C364.472 531.68 362.04 495.392 361.72 490.208L363.448 490.144ZM429.304 496.48C428.536 503.264 427.256 510.816 425.464 516.896C421.496 530.272 416.824 535.84 411.96 535.84C407.672 535.84 402.168 530.656 402.168 520.288C402.168 507.232 414.008 495.648 428.728 495.648C442.872 495.648 451.896 505.76 451.896 517.728C451.896 531.104 442.488 539.488 428.216 540.96L427.128 539.04C428.728 538.976 430.84 538.72 432.12 538.464C440.376 536.736 450.104 530.336 450.104 517.6C450.104 507.104 442.232 497.44 428.728 497.44C414.136 497.44 403.96 509.472 403.96 520.224C403.96 529.888 408.76 533.92 412.088 533.92C415.352 533.92 419.768 529.376 423.608 516.384C425.464 510.176 426.808 503.136 427.384 496.544L429.304 496.48ZM492.391 540.832C489.191 540.832 485.351 539.168 482.215 536.608H482.023L481.703 540H479.783V489.184H482.087V504.16L481.895 510.944C485.415 508 489.575 505.44 493.799 505.44C502.951 505.44 507.367 512.224 507.367 522.656C507.367 534.112 500.455 540.832 492.391 540.832ZM492.583 538.72C499.751 538.72 504.935 532.064 504.935 522.656C504.935 514.08 501.863 507.552 493.607 507.552C490.151 507.552 486.247 509.664 482.087 513.376V534.176C485.927 537.504 489.895 538.72 492.583 538.72ZM530.2 540.832C521.688 540.832 514.776 534.24 514.776 523.232C514.776 512.224 521.816 505.44 529.304 505.44C537.112 505.44 542.04 511.008 542.04 520.992C542.04 521.696 542.04 522.4 541.912 523.296H517.208C517.208 532.192 522.392 538.72 530.328 538.72C534.168 538.72 537.048 537.504 539.608 535.648L540.632 537.632C538.072 539.168 535.192 540.832 530.2 540.832ZM517.208 521.184H539.8C539.8 512.032 535.64 507.552 529.304 507.552C523.288 507.552 517.912 512.672 517.208 521.184ZM559.406 540.832C554.35 540.832 550.126 538.72 547.118 536.224L548.59 534.368C551.406 536.8 554.542 538.72 559.534 538.72C565.166 538.72 568.046 535.456 568.046 531.616C568.046 527.2 563.566 525.216 559.598 523.808C554.478 521.952 548.974 520.032 548.974 514.208C548.974 509.536 552.622 505.44 559.598 505.44C562.99 505.44 566.574 506.848 568.942 508.896L567.598 510.624C565.358 508.96 562.99 507.552 559.47 507.552C553.902 507.552 551.342 510.752 551.342 514.08C551.342 518.112 555.182 519.648 559.214 521.184C564.59 523.232 570.414 524.896 570.414 531.488C570.414 536.48 566.51 540.832 559.406 540.832ZM586.987 540.832C580.715 540.832 579.051 536.928 579.051 531.04V508.384H573.674V506.592L579.051 506.272L579.307 496.416H581.291V506.272H591.275V508.384H581.291V531.36C581.291 535.712 582.251 538.72 587.179 538.72C588.458 538.72 590.251 538.208 591.467 537.632L592.235 539.552C590.251 540.256 588.139 540.832 586.987 540.832ZM634.776 490.144C634.2 492.832 633.624 496.032 632.024 500.064C630.232 504.672 627.288 509.664 624.024 513.76C627.224 511.52 631.192 510.24 634.584 510.24C639.192 510.24 642.84 512.928 642.84 517.408C642.84 520.544 642.904 528.352 642.968 532.192H640.792C640.984 528.416 640.984 520.672 640.92 517.536C640.856 514.144 638.232 512.096 634.264 512.096C629.656 512.096 625.56 514.016 622.168 517.024C620.376 518.624 618.584 520.992 616.472 523.36L614.552 522.016C624.792 511.84 628.44 503.968 630.104 500.128C631.64 496.544 632.536 492.768 632.728 489.952L634.776 490.144ZM615.064 498.016C618.648 498.464 622.808 498.656 625.432 498.656C634.264 498.656 644.824 498.016 653.592 496.48V498.528C644.76 500 633.816 500.512 625.304 500.512C622.424 500.512 618.648 500.384 615.064 500.192V498.016ZM662.168 510.752C660.888 511.136 659.736 511.648 658.456 512.16C653.592 514.08 647.128 516.64 640.792 520.032C633.88 523.616 628.056 527.776 628.056 533.088C628.056 539.552 634.904 540.128 641.88 540.128C646.424 540.128 653.016 539.68 658.648 538.848L658.584 540.896C653.144 541.536 646.744 541.984 641.688 541.984C633.432 541.984 626.2 540.512 626.2 533.216C626.2 526.56 632.984 522.208 640.536 518.24C646.744 514.976 653.08 512.544 657.752 510.368C659.096 509.728 659.992 509.344 661.144 508.704L662.168 510.752ZM685.912 494.56C687.448 494.688 688.92 494.688 690.2 494.688C693.272 494.688 703.256 494.112 705.688 493.92C706.52 493.856 707.096 493.728 707.672 493.536L709.016 494.688C708.632 495.136 708.312 495.584 707.8 496.352C705.88 499.36 702.36 507.488 699.288 514.016C696.728 519.456 692.76 529.248 689.944 533.152C687.96 535.776 686.04 536.416 683.8 536.416C679.896 536.416 677.016 533.408 677.016 529.248C677.016 520.224 685.4 513.376 697.688 513.376C711.576 513.376 723.928 520.736 730.968 525.984L729.944 528.032C722.84 522.08 710.68 515.104 697.496 515.104C685.656 515.104 678.872 522.016 678.872 529.12C678.872 532.704 681.304 534.624 683.8 534.624C685.464 534.624 686.744 534.112 688.216 532.32C691.416 528.48 694.808 519.584 697.432 513.888C700.248 507.744 703.384 500.832 705.88 495.712C703.32 495.84 693.272 496.352 690.328 496.48C688.856 496.544 687.448 496.672 686.04 496.8L685.912 494.56ZM723.8 507.488C722.904 525.792 719.128 536.16 704.6 543.136L703 541.664C717.272 535.776 720.856 523.616 721.688 512.096C721.752 510.752 721.816 508.96 721.752 507.296L723.8 507.488ZM741.272 498.976C743.64 498.912 745.176 498.784 746.456 498.656C749.4 498.272 763.032 496.8 774.872 495.84C782.232 495.2 787.224 494.88 791.256 494.752V496.736C787.352 496.672 781.656 496.8 778.584 497.888C768.024 501.728 762.712 512.928 762.712 520.48C762.712 534.944 776.216 539.104 786.2 539.36L785.496 541.152C775.192 541.088 760.92 535.712 760.92 520.992C760.92 510.24 767.896 501.216 775.32 497.504C767.576 498.336 748.056 500.128 741.592 501.408L741.272 498.976ZM814.437 542.752C810.085 537.376 804.517 531.936 799.909 528.352L801.509 526.816C806.181 530.528 811.557 535.84 816.293 541.216L814.437 542.752ZM105.72 582.248H107.64C107.128 591.528 106.04 624.168 79.224 636.904C78.904 636.456 78.264 635.88 77.88 635.56C104.44 623.144 105.336 590.824 105.72 582.248ZM107.448 583.144C107.704 587.56 110.072 623.592 136.568 635.432C136.12 635.752 135.48 636.456 135.096 636.968C108.472 624.68 106.04 588.392 105.72 583.208L107.448 583.144ZM152.44 593.128H196.536V594.984H152.44V593.128ZM149.432 611.816H194.36V613.672H149.432V611.816ZM142.84 633.384H199.352V635.24H142.84V633.384ZM170.168 579.88H172.088V634.344H170.168V579.88ZM156.216 581.16L158.072 581.544C155.32 591.464 150.968 600.552 145.72 606.696C145.336 606.376 144.44 605.8 143.992 605.608C149.432 599.592 153.656 590.632 156.216 581.16ZM230.776 583.144C230.2 585.832 229.624 589.032 228.024 593.064C226.232 597.672 223.288 602.664 220.024 606.76C223.224 604.52 227.192 603.24 230.584 603.24C235.192 603.24 238.84 605.928 238.84 610.408C238.84 613.544 238.904 621.352 238.968 625.192H236.792C236.984 621.416 236.984 613.672 236.92 610.536C236.856 607.144 234.232 605.096 230.264 605.096C225.656 605.096 221.56 607.016 218.168 610.024C216.376 611.624 214.584 613.992 212.472 616.36L210.552 615.016C220.792 604.84 224.44 596.968 226.104 593.128C227.64 589.544 228.536 585.768 228.728 582.952L230.776 583.144ZM211.064 591.016C214.648 591.464 218.808 591.656 221.432 591.656C230.264 591.656 240.824 591.016 249.592 589.48V591.528C240.76 593 229.816 593.512 221.304 593.512C218.424 593.512 214.648 593.384 211.064 593.192V591.016ZM258.168 603.752C256.888 604.136 255.736 604.648 254.456 605.16C249.592 607.08 243.128 609.64 236.792 613.032C229.88 616.616 224.056 620.776 224.056 626.088C224.056 632.552 230.904 633.128 237.88 633.128C242.424 633.128 249.016 632.68 254.648 631.848L254.584 633.896C249.144 634.536 242.744 634.984 237.688 634.984C229.432 634.984 222.2 633.512 222.2 626.216C222.2 619.56 228.984 615.208 236.536 611.24C242.744 607.976 249.08 605.544 253.752 603.368C255.096 602.728 255.992 602.344 257.144 601.704L258.168 603.752ZM271.608 607.4H326.648V609.256H271.608V607.4ZM270.264 633.768H327.928V635.624H270.264V633.768ZM281.144 615.592V623.4H316.92V615.592H281.144ZM279.224 613.736H318.84V625.256H279.224V613.736ZM285.688 626.664L287.288 626.024C288.952 628.136 290.488 631.016 291.128 633L289.336 633.768C288.76 631.72 287.288 628.776 285.688 626.664ZM310.904 625.896L312.632 626.664C311.224 629.16 309.56 631.784 308.088 633.704L306.616 633C308.024 631.016 309.944 627.88 310.904 625.896ZM278.904 594.664V601.064H318.776V594.664H278.904ZM278.904 586.536V592.808H318.776V586.536H278.904ZM277.048 584.616H320.632V602.92H277.048V584.616ZM290.296 579.688H292.152V602.28H290.296V579.688ZM304.504 579.688H306.424V602.28H304.504V579.688ZM357.496 583.656C357.368 584.36 357.24 585.064 357.112 585.96C356.856 587.688 355.96 594.216 354.872 598.888C352.632 607.848 348.664 621.48 340.856 634.024L338.808 633.192C345.784 623.912 351.224 606.632 352.888 599.016C354.04 594.6 355.064 588.52 355.128 583.464L357.496 583.656ZM379.512 591.336C383.544 596.136 389.304 607.528 391.608 613.288L389.816 614.248C387.704 608.232 382.264 597.16 377.848 592.296L379.512 591.336ZM337.336 598.632C339.064 598.696 340.216 598.696 341.944 598.632C346.36 598.504 360.248 597.032 364.152 597.032C368.824 597.032 373.368 598.376 373.368 606.44C373.368 614.12 372.216 624.104 369.592 629.224C367.672 633.32 364.856 634.024 361.4 634.024C358.968 634.024 355.896 633.512 354.04 633.064L353.72 630.824C356.6 631.784 359.672 632.104 361.592 632.104C364.152 632.104 366.392 631.72 367.992 628.264C370.296 623.208 371.448 614.312 371.448 606.76C371.448 600.168 368.248 598.76 364.088 598.76C359.288 598.76 346.36 600.232 342.072 600.552C340.984 600.68 339 600.872 337.656 601.064L337.336 598.632ZM424.696 591.336C430.776 592.616 443.896 592.424 449.784 591.336V593.448C443.896 594.216 430.712 594.216 424.696 593.448V591.336ZM424.568 616.168C423.864 618.664 423.48 620.712 423.48 622.504C423.48 625.512 425.144 629.48 436.088 629.48C441.848 629.48 447.032 628.968 451.768 627.816L451.832 629.928C447.992 630.76 442.424 631.336 436.408 631.336C425.976 631.336 421.688 628.136 421.688 622.632C421.688 620.904 422.008 618.856 422.648 615.912L424.568 616.168ZM410.168 585.768C409.912 586.6 409.656 587.432 409.4 588.584C407.864 596.2 406.136 606.248 406.136 614.248C406.136 619.176 406.456 622.952 407.032 627.944C408.248 624.36 410.232 618.856 411.448 615.784L412.856 616.808C411.448 620.52 408.888 627.112 408.376 629.8C408.184 630.696 408.056 631.72 408.12 632.552C408.184 633.192 408.312 633.896 408.376 634.344L406.584 634.536C405.304 629.8 404.344 622.888 404.344 614.248C404.344 605.096 406.648 593.96 407.48 588.328C407.672 587.112 407.736 586.28 407.736 585.512L410.168 585.768ZM478.776 584.04C478.52 585.576 478.456 586.728 478.392 588.392C478.136 595.944 477.624 611.944 477.624 623.08C477.624 630.696 482.616 633.512 489.784 633.512C502.648 633.512 509.24 626.472 513.784 620.136L515.192 621.736C510.584 627.752 503.096 635.304 489.592 635.304C481.656 635.304 475.704 632.296 475.704 622.312C475.704 611.944 476.408 596.328 476.408 588.392C476.408 586.728 476.344 585.256 476.088 584.04H478.776ZM527.335 591.976C529.703 591.912 531.239 591.784 532.519 591.656C535.463 591.272 549.095 589.8 560.935 588.84C568.295 588.2 573.287 587.88 577.319 587.752V589.736C573.415 589.672 567.719 589.8 564.647 590.888C554.087 594.728 548.775 605.928 548.775 613.48C548.775 627.944 562.279 632.104 572.263 632.36L571.559 634.152C561.255 634.088 546.983 628.712 546.983 613.992C546.983 603.24 553.958 594.216 561.383 590.504C553.639 591.336 534.119 593.128 527.655 594.408L527.335 591.976ZM626.261 584.68C625.557 585.32 623.701 587.048 623.061 587.624C618.453 591.976 608.469 599.976 603.285 604.2C598.997 607.912 598.805 609.128 603.605 613.032C610.453 618.536 620.949 627.24 627.989 634.536L626.325 636.008C625.429 634.984 624.341 633.832 623.125 632.616C617.941 627.432 607.957 618.856 601.877 613.928C596.117 609.256 597.077 607.208 602.197 602.792C606.869 598.824 617.493 590.568 621.845 586.024C622.549 585.256 623.765 583.72 624.213 582.888L626.261 584.68ZM671.573 584.488C671.253 585.512 670.869 587.496 670.677 588.584C669.717 593.448 668.565 600.104 666.773 606.376C664.469 615.592 660.117 628.968 656.917 635.368L654.613 634.6C658.517 627.816 662.677 615.208 665.045 606.12C666.581 600.296 668.437 591.272 668.885 588.328C669.077 587.112 669.205 585.384 669.141 584.232L671.573 584.488ZM659.541 596.264C665.813 596.264 675.605 595.24 683.157 593.192V595.24C675.221 596.968 665.941 598.056 659.413 598.056C656.917 598.056 654.741 597.992 652.309 597.8L652.245 595.816C654.997 596.2 657.493 596.264 659.541 596.264ZM679.893 604.072C683.029 603.816 686.933 603.624 690.965 603.624C694.805 603.624 698.709 603.752 701.909 604.136L701.781 606.184C698.453 605.736 694.869 605.48 691.221 605.48C687.637 605.48 683.733 605.736 679.893 606.12V604.072ZM679.061 619.112C678.421 621.48 678.101 623.4 678.101 625.32C678.101 628.52 679.637 632.296 690.965 632.296C695.061 632.296 699.413 631.848 702.741 631.08L702.677 633.256C699.349 633.768 695.125 634.152 690.901 634.152C681.557 634.152 676.309 631.656 676.309 625.448C676.309 623.528 676.565 621.8 677.141 618.92L679.061 619.112ZM694.869 586.536C696.533 588.776 698.901 592.552 700.309 595.368L698.517 596.264C697.301 593.704 694.869 589.736 693.141 587.368L694.869 586.536ZM701.397 584.232C703.189 586.6 705.749 590.504 707.029 593.064L705.237 593.96C703.765 591.016 701.589 587.496 699.733 585.064L701.397 584.232ZM745.749 587.688C745.365 586.408 744.981 584.808 744.533 583.528L746.837 583.208C747.093 585.704 748.821 591.656 750.293 595.88C752.277 601.576 755.797 607.912 759.125 612.456C759.765 613.352 760.533 614.184 761.301 614.952L760.021 616.488C757.461 615.72 750.037 615.144 746.197 614.952L746.325 613.224C750.357 613.544 755.605 613.992 758.229 614.312C755.093 609.96 750.933 602.6 748.629 596.328C747.221 592.488 746.325 589.608 745.749 587.688ZM722.197 594.664C731.605 595.752 742.037 595.88 749.013 595.176C753.429 594.728 760.469 593.512 765.397 591.656L765.589 593.704C760.725 595.112 754.005 596.2 749.781 596.712C742.037 597.608 731.797 597.48 722.325 596.712L722.197 594.664ZM729.109 613.672C727.381 616.808 726.165 619.496 726.165 622.824C726.165 629.608 732.501 632.68 742.741 632.808C748.757 632.872 754.197 632.296 758.613 631.208V633.32C754.261 634.088 749.205 634.664 742.677 634.6C731.477 634.472 724.309 630.76 724.309 622.632C724.309 619.432 725.653 616.424 727.125 613.224L729.109 613.672ZM787.093 589.416C786.965 590.184 786.837 592.488 786.773 594.024C786.645 597.864 786.773 604.84 787.285 610.728C788.501 622.888 792.789 630.76 797.909 630.76C801.365 630.76 804.885 625.064 806.997 617.32L808.597 618.664C805.141 629.16 801.365 632.744 797.845 632.744C792.789 632.744 787.285 626.984 785.557 610.984C784.981 605.8 784.853 597.736 784.853 594.216C784.853 593 784.853 590.312 784.533 589.288L787.093 589.416ZM821.717 591.528C827.093 599.016 831.381 610.216 832.597 622.056L830.741 622.888C829.461 610.152 825.109 599.336 819.925 592.296L821.717 591.528ZM851.605 617.64C856.661 617.64 860.757 621.736 860.757 626.792C860.757 631.848 856.661 635.944 851.605 635.944C846.613 635.944 842.453 631.848 842.453 626.792C842.453 621.736 846.613 617.64 851.605 617.64ZM851.605 634.024C855.637 634.024 858.837 630.824 858.837 626.792C858.837 622.824 855.637 619.56 851.605 619.56C847.637 619.56 844.373 622.824 844.373 626.792C844.373 630.824 847.637 634.024 851.605 634.024Z" fill="black"/>
<path d="M320.442 158.959C316.896 158.959 313.466 158 310.153 156.082C306.898 154.164 304.399 151.635 302.655 148.496V158H299.865V92.6065H302.655V128.704C304.224 125.39 306.666 122.746 309.979 120.769C313.292 118.793 316.78 117.805 320.442 117.805C324.22 117.805 327.679 118.735 330.818 120.595C334.015 122.455 336.543 124.954 338.403 128.093C340.263 131.232 341.193 134.662 341.193 138.382C341.193 142.102 340.263 145.532 338.403 148.671C336.543 151.809 334.015 154.309 330.818 156.169C327.679 158.029 324.22 158.959 320.442 158.959ZM320.616 156.518C323.813 156.518 326.778 155.704 329.51 154.076C332.242 152.391 334.392 150.182 335.962 147.45C337.589 144.66 338.403 141.637 338.403 138.382C338.403 135.185 337.589 132.191 335.962 129.401C334.334 126.611 332.154 124.402 329.422 122.775C326.691 121.089 323.726 120.246 320.529 120.246C317.332 120.246 314.338 121.089 311.548 122.775C308.816 124.46 306.607 126.698 304.922 129.488C303.294 132.279 302.48 135.272 302.48 138.469C302.48 141.666 303.294 144.66 304.922 147.45C306.607 150.182 308.845 152.391 311.635 154.076C314.426 155.704 317.419 156.518 320.616 156.518ZM369.026 156.605C372.049 156.605 374.926 155.82 377.658 154.251C380.39 152.681 382.657 150.531 384.459 147.799V152.245C382.309 154.629 379.954 156.372 377.397 157.477C374.839 158.523 371.933 159.046 368.678 159.046C365.074 159.046 361.673 158.087 358.476 156.169C355.337 154.251 352.809 151.693 350.891 148.496C349.031 145.299 348.101 141.899 348.101 138.295C348.101 134.4 349.031 130.913 350.891 127.832C352.751 124.693 355.279 122.252 358.476 120.508C361.731 118.764 365.335 117.892 369.288 117.892C375.333 117.892 380.478 120.275 384.721 125.042L357.343 152.071C359.261 153.64 361.121 154.803 362.923 155.559C364.725 156.256 366.759 156.605 369.026 156.605ZM350.891 138.033C350.891 142.858 352.489 146.985 355.686 150.414L381.233 125.042C379.315 123.356 377.455 122.164 375.653 121.467C373.851 120.711 371.7 120.333 369.201 120.333C365.655 120.333 362.487 121.118 359.697 122.688C356.965 124.199 354.814 126.291 353.245 128.965C351.675 131.639 350.891 134.662 350.891 138.033ZM402.946 158.959C400.156 158.959 397.685 158.494 395.535 157.564C393.384 156.576 391.844 155.326 390.913 153.815V149.194C392.018 151.693 393.529 153.553 395.447 154.774C397.366 155.936 399.807 156.518 402.772 156.518C405.62 156.518 407.916 155.646 409.66 153.902C411.403 152.1 412.275 149.804 412.275 147.014C412.275 144.631 411.781 142.8 410.793 141.521C409.805 140.184 408.206 138.847 405.998 137.51L402.684 135.592C400.301 134.139 398.499 133.005 397.278 132.191C396.116 131.319 395.186 130.36 394.488 129.314C393.791 128.21 393.442 126.931 393.442 125.478C393.442 123.153 394.256 121.292 395.883 119.897C397.511 118.502 399.633 117.805 402.248 117.805C405.445 117.805 408.119 118.531 410.27 119.985V123.821C408.468 121.438 405.881 120.246 402.51 120.246C400.65 120.246 399.139 120.711 397.976 121.641C396.813 122.571 396.232 123.763 396.232 125.216C396.232 126.495 396.581 127.628 397.278 128.617C397.976 129.547 398.935 130.418 400.156 131.232C401.435 132.046 403.527 133.267 406.434 134.894C409.398 136.58 411.578 138.324 412.973 140.126C414.368 141.87 415.065 144.166 415.065 147.014C415.065 150.618 413.874 153.524 411.491 155.733C409.166 157.884 406.317 158.959 402.946 158.959ZM437.792 158.523C433.491 158.523 429.916 157.215 427.068 154.6C424.278 151.984 422.883 148.38 422.883 143.788V102.982H425.673V118.764H437.705V121.205H425.673V143.788C425.673 147.624 426.806 150.647 429.073 152.856C431.398 155.006 434.305 156.082 437.792 156.082V158.523Z" fill="black"/>
<line x1="282.633" y1="162" x2="282.633" y2="66" stroke="black" stroke-width="1.5"/>
<path d="M282.714 50L285.166 57.9463H293.099L286.681 62.8574L289.132 70.8037L282.714 65.8926L276.296 70.8037L278.748 62.8574L272.329 57.9463H280.263L282.714 50Z" fill="black"/>
</svg>
