<svg width="1158" height="709" viewBox="0 0 1158 709" fill="none" xmlns="http://www.w3.org/2000/svg">
<path d="M438.952 61.1726C437.878 61.8635 436.496 62.5544 434.807 63.4756C429.203 66.4694 417.535 72.0734 409.551 77.447C401.644 82.5904 397.345 88.2711 397.345 94.5659C397.345 101.782 404.177 106.772 417.765 106.772C426.593 106.772 436.726 105.851 441.87 104.392V107.079C436.88 108 427.207 108.921 417.995 108.921C404.484 108.921 395.196 104.622 395.196 94.7962C395.196 87.8872 399.264 81.7459 408.246 75.7582C416.613 70.0775 428.435 64.5503 433.732 61.6332C435.268 60.712 436.419 60.0211 437.647 59.0231L438.952 61.1726ZM399.878 49.7344C403.256 59.1766 407.862 69.0795 411.393 75.0673L409.628 76.2955C406.096 70.6916 401.414 60.0211 397.422 50.8859L399.878 49.7344ZM486.01 64.3968C490.309 64.7806 494.147 65.0109 498.6 65.0109C507.658 65.0109 516.947 64.3968 524.47 62.9382V65.2412C516.179 66.6997 507.198 67.3139 498.37 67.3139C494.071 67.3139 490.463 67.0836 486.01 66.7765V64.3968ZM510.499 49.8112C510.268 51.4233 510.115 52.7283 510.038 54.1101C509.884 57.1807 509.884 62.8614 509.884 66.3927C509.884 75.9117 510.959 89.8064 510.959 98.4042C510.959 102.933 509.117 109.305 499.444 109.305C489.541 109.305 484.859 105.467 484.859 99.7092C484.859 94.6427 489.695 89.8064 499.367 89.8064C510.806 89.8064 519.403 95.6406 526.389 101.782L524.931 103.931C517.638 97.0992 509.884 91.8023 499.137 91.8023C491.998 91.8023 486.931 95.0265 486.931 99.5557C486.931 104.315 491.461 107.156 498.446 107.156C506.66 107.156 508.81 103.087 508.81 97.4063C508.81 91.6488 507.735 75.7582 507.735 66.5462C507.735 61.8635 507.735 57.2575 507.812 54.1868C507.812 52.7283 507.812 51.0394 507.658 49.8112H510.499ZM472.192 50.0415C471.885 51.0394 471.578 52.1141 471.348 53.4959C469.429 62.6311 467.356 76.142 467.356 85.661C467.356 91.6488 467.74 96.1012 468.584 102.089C469.966 97.7901 472.423 91.0347 473.958 87.3499L475.493 88.5014C473.881 92.877 470.734 100.784 470.043 104.085C469.812 105.16 469.736 106.465 469.812 107.463C469.889 108.154 470.043 109.075 470.12 109.612L467.97 109.842C466.512 104.162 465.206 96.1012 465.206 85.7378C465.206 74.7602 468.047 59.9443 469.045 53.1889C469.275 51.7303 469.352 50.6556 469.352 49.7344L472.192 50.0415Z" fill="black"/>
<path d="M34.3145 183.199C34.0842 183.66 33.7772 185.041 33.6236 185.963C32.5489 191.643 31.1671 204.924 31.1671 216.439C31.1671 224.192 33.2398 234.018 35.466 240.774L33.163 241.541C31.0136 234.709 29.0177 224.346 29.0177 216.132C29.0177 205.077 30.7833 191.567 31.3206 185.886C31.3974 184.658 31.4742 183.66 31.4742 183.122L34.3145 183.199ZM23.2602 193.716C35.6963 193.716 50.8193 192.257 60.3383 190.262L60.4151 192.795C48.8234 194.714 34.6216 195.942 23.3369 195.942C20.8037 195.942 14.8159 195.712 12.1291 195.482L12.0523 192.795C14.6624 193.332 21.341 193.716 23.2602 193.716ZM54.1202 200.471C53.8132 201.162 53.5829 201.777 53.2758 202.621C48.5163 217.13 41.07 228.107 32.3186 235.17C27.4056 239.085 21.8016 241.388 17.5795 241.388C13.0503 241.388 9.74932 238.548 9.74932 233.327C9.74932 223.118 19.5754 212.831 30.1691 208.455C35.3125 206.382 41.4538 205.231 45.6759 205.231C60.3383 205.231 68.0149 213.829 68.0149 223.271C68.0149 234.402 59.8777 243 43.0659 245.764L41.6073 243.614C54.5041 242.232 65.6352 235.4 65.6352 223.118C65.6352 214.75 58.5727 207.227 46.0598 207.227C40.1488 207.227 34.3913 208.993 30.3227 210.758C20.6501 214.827 12.2826 224.423 12.2826 233.327C12.2826 237.089 14.2785 238.931 17.5027 238.931C21.4946 238.931 26.3308 237.166 31.5509 232.867C39.6114 226.111 46.981 216.362 50.896 202.007C51.0496 201.316 51.2799 200.548 51.3566 199.704L54.1202 200.471ZM85.2873 196.48C87.6671 196.787 90.1236 196.94 93.8852 196.94C101.024 196.94 109.929 196.48 120.216 193.025L120.293 195.558C111.848 197.861 102.713 199.243 93.8084 199.166C91.1983 199.166 87.8974 199.09 85.4409 199.013L85.2873 196.48ZM109.853 182.969C108.931 186.423 107.473 193.332 105.937 197.785C102.099 208.839 94.8831 222.427 88.665 230.564L86.1318 229.182C92.8872 221.659 100.18 207.841 103.558 198.015C105.016 193.793 106.705 187.498 106.935 182.662L109.853 182.969ZM128.046 206.459C127.893 209.53 127.816 210.988 127.893 213.138C128.046 218.588 128.737 230.41 128.737 236.321C128.737 241.465 124.745 245.84 116.685 245.84C109.315 245.84 103.097 243.307 103.097 236.475C103.097 229.796 110.16 226.726 116.762 226.726C129.121 226.726 138.256 232.867 144.551 237.933L143.092 240.083C136.798 234.556 127.969 228.721 116.915 228.721C110.083 228.721 105.323 232.022 105.323 236.398C105.323 240.697 108.778 243.614 116.531 243.614C124.054 243.614 126.664 239.776 126.664 235.707C126.664 228.645 125.82 215.364 125.666 206.459H128.046ZM145.549 206.459C141.711 203.005 133.804 198.552 128.891 196.249L130.119 194.484C135.723 196.94 143.706 201.777 147.007 204.463L145.549 206.459ZM185.16 183.506C184.776 184.734 184.316 187.114 184.086 188.419C182.934 194.253 181.552 202.237 179.403 209.76C176.639 220.815 171.419 236.859 167.581 244.535L164.817 243.614C169.5 235.477 174.49 220.354 177.33 209.453C179.172 202.467 181.399 191.643 181.936 188.112C182.166 186.654 182.32 184.581 182.243 183.199L185.16 183.506ZM170.728 197.631C178.251 197.631 189.997 196.403 199.055 193.946V196.403C189.536 198.476 178.405 199.781 170.575 199.781C167.581 199.781 164.971 199.704 162.054 199.474L161.977 197.094C165.278 197.554 168.272 197.631 170.728 197.631ZM195.14 206.997C198.901 206.69 203.584 206.459 208.42 206.459C213.026 206.459 217.709 206.613 221.547 207.073L221.394 209.53C217.402 208.993 213.103 208.685 208.728 208.685C204.429 208.685 199.746 208.993 195.14 209.453V206.997ZM194.142 225.037C193.374 227.877 192.99 230.18 192.99 232.483C192.99 236.321 194.833 240.851 208.42 240.851C213.333 240.851 218.554 240.313 222.545 239.392L222.469 242.002C218.477 242.616 213.41 243.077 208.344 243.077C197.136 243.077 190.841 240.083 190.841 232.637C190.841 230.334 191.148 228.261 191.839 224.806L194.142 225.037ZM260.545 183.813C260.391 184.658 260.238 185.502 260.084 186.577C259.777 188.649 258.702 196.48 257.397 202.084C254.711 212.831 249.951 229.182 240.586 244.228L238.129 243.23C246.497 232.099 253.022 211.372 255.018 202.237C256.399 196.94 257.628 189.647 257.704 183.583L260.545 183.813ZM286.876 193.87C291.712 199.627 298.698 213.215 301.461 220.124L299.312 221.275C296.778 214.059 290.177 200.855 284.88 195.021L286.876 193.87ZM236.363 201.777C238.436 201.853 239.818 201.853 241.891 201.777C247.187 201.623 263.846 199.857 268.528 199.857C274.132 199.857 279.583 201.469 279.583 211.142C279.583 220.354 278.201 232.329 275.054 238.471C272.751 243.384 269.373 244.228 265.227 244.228C262.31 244.228 258.626 243.614 256.399 243.077L256.016 240.39C259.47 241.541 263.155 241.925 265.458 241.925C268.528 241.925 271.215 241.465 273.134 237.319C275.898 231.255 277.28 220.584 277.28 211.526C277.28 203.619 273.441 201.93 268.452 201.93C262.694 201.93 247.187 203.696 242.044 204.079C240.739 204.233 238.359 204.463 236.747 204.694L236.363 201.777ZM290.023 182.201C291.942 184.888 294.783 189.417 296.548 192.795L294.322 193.87C292.863 190.799 290.023 186.039 287.874 183.199L290.023 182.201ZM297.853 179.514C299.926 182.278 302.996 187.037 304.609 190.031L302.382 191.106C300.617 187.652 298.083 183.353 295.78 180.512L297.853 179.514ZM347.116 243.998C343.278 243.998 338.672 242.002 334.91 238.931H334.68L334.296 243H331.993V182.048H334.757V200.011L334.526 208.148C338.749 204.617 343.738 201.546 348.805 201.546C359.783 201.546 365.079 209.683 365.079 222.196C365.079 235.938 356.789 243.998 347.116 243.998ZM347.346 241.465C355.944 241.465 362.162 233.481 362.162 222.196C362.162 211.91 358.478 204.079 348.575 204.079C344.429 204.079 339.747 206.613 334.757 211.065V236.014C339.363 240.006 344.122 241.465 347.346 241.465ZM392.468 243.998C382.258 243.998 373.967 236.091 373.967 222.887C373.967 209.683 382.411 201.546 391.393 201.546C400.758 201.546 406.669 208.225 406.669 220.2C406.669 221.045 406.669 221.889 406.516 222.964H376.884C376.884 233.635 383.102 241.465 392.621 241.465C397.227 241.465 400.682 240.006 403.752 237.78L404.98 240.16C401.91 242.002 398.455 243.998 392.468 243.998ZM376.884 220.431H403.983C403.983 209.453 398.993 204.079 391.393 204.079C384.177 204.079 377.728 210.221 376.884 220.431ZM427.499 243.998C421.435 243.998 416.368 241.465 412.76 238.471L414.526 236.245C417.904 239.162 421.665 241.465 427.653 241.465C434.408 241.465 437.863 237.55 437.863 232.944C437.863 227.647 432.489 225.267 427.73 223.578C421.588 221.352 414.986 219.049 414.986 212.063C414.986 206.459 419.362 201.546 427.73 201.546C431.798 201.546 436.097 203.235 438.938 205.692L437.325 207.764C434.639 205.768 431.798 204.079 427.576 204.079C420.897 204.079 417.827 207.918 417.827 211.91C417.827 216.746 422.433 218.588 427.269 220.431C433.717 222.887 440.703 224.883 440.703 232.79C440.703 238.778 436.02 243.998 427.499 243.998ZM460.581 243.998C453.058 243.998 451.062 239.315 451.062 232.253V205.077H444.614V202.928L451.062 202.544L451.369 190.722H453.749V202.544H465.725V205.077H453.749V232.637C453.749 237.857 454.901 241.465 460.812 241.465C462.347 241.465 464.497 240.851 465.955 240.16L466.876 242.463C464.497 243.307 461.963 243.998 460.581 243.998ZM545.54 196.173C544.465 196.863 543.083 197.554 541.394 198.476C535.79 201.469 524.122 207.073 516.138 212.447C508.231 217.59 503.932 223.271 503.932 229.566C503.932 236.782 510.764 241.772 524.352 241.772C533.18 241.772 543.313 240.851 548.457 239.392V242.079C543.467 243 533.794 243.921 524.582 243.921C511.071 243.921 501.783 239.622 501.783 229.796C501.783 222.887 505.851 216.746 514.833 210.758C523.201 205.077 535.023 199.55 540.319 196.633C541.855 195.712 543.006 195.021 544.234 194.023L545.54 196.173ZM506.465 184.734C509.843 194.177 514.449 204.079 517.98 210.067L516.215 211.296C512.684 205.692 508.001 195.021 504.009 185.886L506.465 184.734ZM613.631 180.743L615.013 179.054C619.082 180.282 623.918 182.508 626.374 184.504L624.993 186.5C622.536 184.427 617.777 182.048 613.631 180.743ZM573.406 187.728H633.744V189.955H573.406V187.728ZM578.396 196.71H602.807V199.013H578.396V196.71ZM580.622 205.768H582.848V219.663H580.622V205.768ZM622.229 195.405L624.455 195.942C620.233 208.916 612.71 219.279 603.498 226.265C603.114 225.804 602.116 225.113 601.579 224.73C610.944 218.051 618.237 207.764 622.229 195.405ZM604.035 179.207H606.338C607.49 205.231 620.463 224.73 629.292 224.653C631.518 224.576 632.285 221.736 632.669 214.366C633.207 214.827 634.128 215.211 634.819 215.441C634.281 224.039 632.9 226.879 629.215 226.879C618.468 226.956 605.417 205.231 604.035 179.207ZM580.622 205.768H600.811V221.352H580.622V219.049H598.508V207.995H580.622V205.768ZM585.304 229.029H587.531V243C587.531 244.766 588.375 245.226 592.981 245.226C595.131 245.226 607.567 245.226 610.561 245.226C614.399 245.226 615.013 244.228 615.32 235.938C615.934 236.398 616.779 236.705 617.546 236.859C617.086 245.533 616.165 247.529 610.714 247.529C609.256 247.529 594.516 247.529 593.211 247.529C586.993 247.529 585.304 246.915 585.304 243V229.029ZM590.064 226.111L591.523 224.576C596.973 226.649 603.114 230.41 606.108 233.481L604.573 235.323C601.579 232.253 595.438 228.414 590.064 226.111ZM617.777 230.948L619.542 229.643C625.53 233.711 631.825 239.929 634.512 244.535L632.592 245.917C630.059 241.234 623.841 235.093 617.777 230.948ZM576.093 230.026L578.012 230.717C575.939 236.705 572.715 243.077 567.034 246.762L565.192 245.533C570.796 242.002 574.25 235.784 576.093 230.026ZM572.254 187.728H574.557V199.09C574.557 207.457 573.252 219.126 566.497 227.724C566.19 227.186 565.268 226.418 564.731 226.188C571.256 217.897 572.254 206.997 572.254 199.09V187.728ZM683.796 191.26C685.484 193.639 689.323 199.627 691.165 203.465L689.016 204.54C687.404 201.239 683.949 195.328 681.723 192.257L683.796 191.26ZM693.315 187.652C695.08 189.955 698.995 196.019 700.914 199.704L698.765 200.779C697.153 197.554 693.622 191.643 691.319 188.649L693.315 187.652ZM661.073 184.888C660.766 186.73 660.689 188.112 660.612 190.108C660.305 199.166 659.691 218.358 659.691 231.715C659.691 240.851 665.679 244.228 674.277 244.228C689.707 244.228 697.613 235.784 703.064 228.184L704.753 230.103C699.226 237.319 690.244 246.378 674.046 246.378C664.527 246.378 657.388 242.77 657.388 230.794C657.388 218.358 658.232 199.627 658.232 190.108C658.232 188.112 658.156 186.346 657.849 184.888H661.073ZM746.514 183.506C746.13 184.734 745.669 187.114 745.439 188.419C744.287 194.253 742.906 202.237 740.756 209.76C737.993 220.815 732.772 236.859 728.934 244.535L726.171 243.614C730.853 235.477 735.843 220.354 738.683 209.453C740.526 202.467 742.752 191.643 743.289 188.112C743.52 186.654 743.673 184.581 743.597 183.199L746.514 183.506ZM732.082 197.631C739.605 197.631 751.35 196.403 760.408 193.946V196.403C750.889 198.476 739.758 199.781 731.928 199.781C728.934 199.781 726.324 199.704 723.407 199.474L723.33 197.094C726.631 197.554 729.625 197.631 732.082 197.631ZM756.493 206.997C760.255 206.69 764.938 206.459 769.774 206.459C774.38 206.459 779.063 206.613 782.901 207.073L782.747 209.53C778.755 208.993 774.457 208.685 770.081 208.685C765.782 208.685 761.099 208.993 756.493 209.453V206.997ZM755.495 225.037C754.728 227.877 754.344 230.18 754.344 232.483C754.344 236.321 756.186 240.851 769.774 240.851C774.687 240.851 779.907 240.313 783.899 239.392L783.822 242.002C779.83 242.616 774.764 243.077 769.697 243.077C758.489 243.077 752.194 240.083 752.194 232.637C752.194 230.334 752.501 228.261 753.192 224.806L755.495 225.037ZM50.6657 289.516H73.6956V291.819H52.9687V339.721H50.6657V289.516ZM108.701 294.813C108.394 296.118 108.24 297.346 108.087 298.728C106.935 309.245 103.711 331.2 103.711 340.029C103.711 348.55 108.24 354.23 118.22 354.23C130.81 354.23 139.791 349.01 139.791 339.414C139.791 334.271 137.181 327.823 130.886 322.986L133.65 322.449C139.1 327.669 141.941 332.966 141.941 339.568C141.941 350.853 131.961 356.38 118.374 356.38C109.699 356.38 101.408 352.465 101.408 340.259C101.408 331.661 104.863 309.168 105.784 298.652C105.937 296.886 105.937 295.658 105.784 294.583L108.701 294.813ZM86.8994 305.714C93.1943 307.633 102.022 308.631 107.857 308.631C113.691 308.631 118.834 308.401 123.978 307.71V310.09C118.681 310.55 113.921 310.781 107.933 310.781C102.176 310.781 93.1175 309.706 86.6691 308.094L86.8994 305.714ZM84.8267 324.829C91.3519 327.209 100.41 328.053 106.859 328.053C112.693 328.053 117.683 327.976 123.44 327.055V329.588C117.452 330.202 112.463 330.356 106.935 330.356C100.41 330.356 91.6589 329.588 84.6732 327.285L84.8267 324.829ZM194.679 301.799C193.758 309.936 192.223 318.995 190.073 326.287C185.314 342.332 179.71 349.01 173.876 349.01C168.732 349.01 162.13 342.792 162.13 330.356C162.13 314.696 176.332 300.801 193.988 300.801C210.954 300.801 221.778 312.93 221.778 327.285C221.778 343.329 210.493 353.386 193.374 355.151L192.069 352.849C193.988 352.772 196.522 352.465 198.057 352.158C207.96 350.085 219.628 342.408 219.628 327.132C219.628 314.542 210.186 302.95 193.988 302.95C176.486 302.95 164.28 317.382 164.28 330.279C164.28 341.871 170.037 346.707 174.029 346.707C177.944 346.707 183.241 341.257 187.847 325.673C190.073 318.227 191.685 309.783 192.376 301.876L194.679 301.799ZM256.399 360.141H233.369V357.838H254.096V309.936H256.399V360.141ZM357.731 289.516H380.761V291.819H360.034V339.721H357.731V289.516ZM408.704 322.372H456.836V324.675H408.704V322.372ZM417.685 331.738H452.998V333.964H417.685V331.738ZM422.214 323.293L424.364 323.908C420.372 332.122 413.31 339.414 406.401 344.174C406.094 343.79 405.249 342.946 404.635 342.562C411.698 338.033 418.376 331.124 422.214 323.293ZM452.307 331.738H454.61C454.61 331.738 454.533 332.659 454.456 333.196C453.151 350.008 451.923 355.842 449.85 357.992C448.852 358.99 447.778 359.22 446.089 359.297C444.553 359.297 441.56 359.297 438.642 359.067C438.642 358.452 438.412 357.454 438.028 356.84C441.406 357.147 444.477 357.224 445.628 357.224C446.78 357.224 447.471 357.147 448.008 356.457C449.774 354.844 451.002 348.626 452.307 332.275V331.738ZM419.374 305.868V314.389H448.929V305.868H419.374ZM419.374 295.12V303.565H448.929V295.12H419.374ZM417.071 292.894H451.155V316.692H417.071V292.894ZM388.514 307.326H410.546V309.629H388.514V307.326ZM398.724 290.514H401.027V337.188H398.724V290.514ZM387.286 341.641C393.12 339.031 401.871 334.732 410.546 330.51L411.083 332.736C403.1 336.651 394.579 340.796 388.361 343.867L387.286 341.641ZM441.483 332.045L443.325 332.966C440.485 343.253 434.19 354.307 427.051 359.681C426.667 359.143 425.823 358.529 425.132 358.222C432.194 353.156 438.719 342.101 441.483 332.045ZM429.123 332.352L430.966 333.35C426.974 342.178 418.914 351.62 411.237 356.457C410.853 355.919 410.162 355.228 409.548 354.768C417.071 350.392 425.285 340.95 429.123 332.352ZM465.895 294.967H498.06V297.193H465.895V294.967ZM502.666 316.538H534.217V318.764H502.666V316.538ZM521.857 317.459H524.083V359.374H521.857V317.459ZM501.898 298.575L505.276 299.726C505.199 300.11 504.892 300.34 504.201 300.417V318.15C504.201 330.586 502.666 346.784 491.842 359.143C491.458 358.683 490.69 357.915 490.076 357.608C500.67 345.786 501.898 330.279 501.898 318.15V298.575ZM469.119 307.48H471.345V329.281C471.345 338.493 470.501 350.776 464.666 359.45C464.282 358.99 463.438 358.299 462.901 357.992C468.505 349.624 469.119 338.109 469.119 329.281V307.48ZM529.534 291.282L531.606 293.048C524.621 296.425 513.259 299.573 503.433 301.876C503.28 301.338 502.896 300.571 502.512 299.957C512.185 297.73 523.546 294.506 529.534 291.282ZM470.424 307.48H495.757V329.128H470.424V326.902H493.454V309.783H470.424V307.48ZM563.464 360.141H540.435V357.838H561.161V309.936H563.464V360.141ZM664.796 289.516H687.826V291.819H667.099V339.721H664.796V289.516ZM712.391 290.514L714.54 291.052C710.165 303.948 703.563 316.154 696.27 324.752C695.963 324.291 695.119 323.37 694.504 322.91C701.721 314.926 708.322 302.797 712.391 290.514ZM704.714 308.861L706.787 306.712L706.941 306.789V359.22H704.714V308.861ZM736.572 290.361H738.799V359.067H736.572V290.361ZM712.698 307.556H763.594V309.859H712.698V307.556ZM721.373 341.487H753.307V343.79H721.373V341.487ZM741.102 308.324C745.784 322.756 754.92 337.342 764.515 343.944C763.901 344.327 763.134 345.172 762.596 345.786C753.077 338.647 743.865 323.831 738.952 309.015L741.102 308.324ZM734.576 308.401L736.496 309.092C731.352 323.984 721.833 338.57 712.468 346.016C712.161 345.402 711.393 344.635 710.779 344.251C720.068 337.495 729.587 322.756 734.576 308.401ZM806.967 322.526V335.73H835.447V322.526H806.967ZM804.664 320.3H837.75V337.956H804.664V320.3ZM821.092 292.587C817.177 299.649 809.961 307.403 802.054 312.469C801.747 312.009 801.056 311.241 800.519 310.781C808.426 306.021 816.102 298.037 819.71 290.361H822.167C826.85 298.421 835.064 306.021 842.28 310.166C841.819 310.627 841.205 311.471 840.898 312.009C833.528 307.326 825.698 299.957 821.092 292.587ZM819.864 310.934H822.167V327.516C822.167 339.491 820.017 351.006 802.284 359.297C801.977 358.836 801.286 357.992 800.749 357.608C818.098 349.624 819.864 338.57 819.864 327.516V310.934ZM823.472 336.421C826.235 346.477 832.453 354.077 841.512 357.378C840.975 357.838 840.284 358.683 839.9 359.297C830.688 355.459 824.239 347.552 821.399 336.958L823.472 336.421ZM809.347 309.783H833.451V312.009H809.347V309.783ZM776.568 305.253H799.981V307.48H776.568V305.253ZM776.568 316.692H799.981V318.918H776.568V316.692ZM775.339 328.437H800.442V330.663H775.339V328.437ZM787.392 294.736H789.618V329.588H787.392V294.736ZM790.693 335.346L792.535 334.578C794.608 337.726 796.757 341.948 797.678 344.635L795.682 345.556C794.838 342.715 792.765 338.493 790.693 335.346ZM785.549 336.804L787.468 336.344C789.234 340.182 790.846 345.249 791.307 348.55L789.234 349.164C788.85 345.863 787.315 340.719 785.549 336.804ZM779.869 337.726L781.864 337.418C782.862 341.948 783.477 347.705 783.477 351.467L781.327 351.774C781.404 347.935 780.79 342.255 779.869 337.726ZM774.725 336.804L776.798 337.188C776.414 343.867 775.57 351.236 772.653 355.228L770.81 354.077C773.574 350.315 774.418 343.253 774.725 336.804ZM775.339 293.815H801.747V296.041H777.642V329.588H775.339V293.815ZM799.444 328.437H801.67C801.67 328.437 801.67 329.435 801.593 329.895C800.672 349.471 799.828 355.766 797.909 357.992C796.987 358.99 795.989 359.374 794.224 359.374C792.842 359.45 789.925 359.374 787.238 359.143C787.161 358.529 787.008 357.608 786.624 356.994C789.771 357.224 792.842 357.301 793.84 357.301C794.915 357.301 795.529 357.224 796.066 356.533C797.525 354.844 798.523 348.012 799.444 328.897V328.437ZM870.53 360.141H847.5V357.838H868.227V309.936H870.53V360.141ZM929.716 307.48C932.096 307.787 934.553 307.94 938.314 307.94C945.453 307.94 954.358 307.48 964.645 304.025L964.722 306.558C956.278 308.861 947.142 310.243 938.237 310.166C935.627 310.166 932.326 310.09 929.87 310.013L929.716 307.48ZM954.282 293.969C953.36 297.423 951.902 304.332 950.366 308.785C946.528 319.839 939.312 333.427 933.094 341.564L930.561 340.182C937.316 332.659 944.609 318.841 947.987 309.015C949.445 304.793 951.134 298.498 951.364 293.662L954.282 293.969ZM972.475 317.459C972.322 320.53 972.245 321.988 972.322 324.138C972.475 329.588 973.166 341.41 973.166 347.321C973.166 352.465 969.174 356.84 961.114 356.84C953.744 356.84 947.526 354.307 947.526 347.475C947.526 340.796 954.589 337.726 961.191 337.726C973.55 337.726 982.685 343.867 988.98 348.933L987.521 351.083C981.227 345.556 972.398 339.721 961.344 339.721C954.512 339.721 949.752 343.022 949.752 347.398C949.752 351.697 953.207 354.614 960.96 354.614C968.483 354.614 971.093 350.776 971.093 346.707C971.093 339.645 970.249 326.364 970.095 317.459H972.475ZM989.978 317.459C986.14 314.005 978.233 309.552 973.32 307.249L974.548 305.484C980.152 307.94 988.136 312.777 991.436 315.463L989.978 317.459ZM1055.31 308.938C1054.23 309.629 1052.85 310.32 1051.16 311.241C1045.56 314.235 1035.65 318.918 1027.67 324.291C1019.76 329.435 1015.46 335.115 1015.46 341.41C1015.46 348.626 1022.3 353.616 1035.88 353.616C1044.71 353.616 1054.85 352.695 1059.99 351.236V353.923C1055 354.844 1045.33 355.766 1036.11 355.766C1022.6 355.766 1013.31 351.467 1013.31 341.641C1013.31 334.732 1017.38 328.59 1026.37 322.603C1034.73 316.922 1044.79 312.316 1050.09 309.399C1051.62 308.478 1052.77 307.787 1054 306.789L1055.31 308.938ZM1018 296.579C1021.38 306.021 1025.98 315.924 1029.51 321.912L1027.75 323.14C1024.22 317.536 1019.53 306.866 1015.54 297.73L1018 296.579ZM1056.99 296.195C1058.91 298.959 1061.75 303.411 1063.44 306.866L1061.29 307.94C1059.84 304.793 1056.99 300.11 1054.85 297.193L1056.99 296.195ZM1064.82 293.508C1066.9 296.272 1069.97 301.031 1071.5 304.025L1069.35 305.1C1067.59 301.645 1065.06 297.346 1062.75 294.506L1064.82 293.508ZM1108.04 294.199C1107.35 297.423 1106.66 301.262 1104.74 306.098C1102.59 311.625 1099.06 317.613 1095.15 322.526C1098.99 319.839 1103.75 318.304 1107.81 318.304C1113.34 318.304 1117.72 321.528 1117.72 326.902C1117.72 330.663 1117.79 340.029 1117.87 344.635H1115.26C1115.49 340.105 1115.49 330.817 1115.41 327.055C1115.34 322.986 1112.19 320.53 1107.43 320.53C1101.9 320.53 1096.99 322.833 1092.92 326.441C1090.77 328.36 1088.62 331.2 1086.09 334.041L1083.79 332.429C1096.07 320.223 1100.44 310.781 1102.44 306.175C1104.28 301.876 1105.36 297.346 1105.59 293.969L1108.04 294.199ZM1084.4 303.641C1088.7 304.179 1093.69 304.409 1096.84 304.409C1107.43 304.409 1120.1 303.641 1130.61 301.799V304.255C1120.02 306.021 1106.89 306.635 1096.68 306.635C1093.23 306.635 1088.7 306.482 1084.4 306.251V303.641ZM1140.9 318.918C1139.36 319.378 1137.98 319.993 1136.45 320.607C1130.61 322.91 1122.86 325.98 1115.26 330.049C1106.97 334.348 1099.98 339.338 1099.98 345.709C1099.98 353.463 1108.2 354.154 1116.57 354.154C1122.02 354.154 1129.92 353.616 1136.68 352.618L1136.6 355.075C1130.08 355.842 1122.4 356.38 1116.34 356.38C1106.43 356.38 1097.76 354.614 1097.76 345.863C1097.76 337.879 1105.89 332.659 1114.95 327.899C1122.4 323.984 1130 321.067 1135.6 318.457C1137.22 317.69 1138.29 317.229 1139.67 316.461L1140.9 318.918ZM37.6155 404.508H39.9185V412.108C39.9185 418.173 37.9993 426.003 30.0924 431.607C29.7085 431.069 28.9409 430.302 28.4035 429.995C36.0802 424.774 37.6155 417.635 37.6155 412.108V404.508ZM38.9973 404.508H59.6474V406.734H38.9973V404.508ZM58.8797 404.508H61.106V424.698C61.106 426.003 61.413 426.31 63.1786 426.31C64.0231 426.31 68.2452 426.31 69.3967 426.31C71.1623 426.31 71.4694 425.158 71.6229 415.946C72.2371 416.484 73.1583 416.791 73.8492 417.021C73.6956 426.387 73.0047 428.613 69.627 428.613C68.8593 428.613 63.8695 428.613 63.1019 428.613C59.7242 428.613 58.8797 427.922 58.8797 424.621V404.508ZM32.5489 434.754H66.0958V436.98H32.5489V434.754ZM65.5584 434.754H66.0958L66.5564 434.601L67.9382 435.445C61.2595 454.944 43.8335 465.921 27.0985 470.527C26.8682 469.913 26.2541 468.992 25.7935 468.531C42.0679 464.386 59.3403 453.485 65.5584 435.291V434.754ZM37.8458 436.904C43.5265 453.101 56.1929 464.386 74.1562 468.454C73.6189 468.992 72.928 469.836 72.5441 470.45C54.5808 465.998 41.6841 454.56 35.7731 437.594L37.8458 436.904ZM3.30095 444.196C9.67255 442.124 19.1148 438.592 28.3268 435.215L28.7874 437.211C20.1895 440.512 11.2079 443.966 4.52921 446.499L3.30095 444.196ZM4.06861 417.328H28.5571V419.554H4.06861V417.328ZM16.735 401.284H18.9613V466.689C18.9613 468.762 18.2704 469.606 16.8886 469.99C15.43 470.374 12.8967 470.45 8.06046 470.374C7.90693 469.913 7.44633 468.915 7.0625 468.224C11.0543 468.301 14.2785 468.301 15.2765 468.224C16.2745 468.224 16.735 467.917 16.735 466.766V401.284ZM126.588 401.361H128.814V410.803H126.588V401.361ZM106.935 409.652H148.62V411.878H106.935V409.652ZM115.764 419.785V429.995H140.175V419.785H115.764ZM113.461 417.482H142.478V432.298H113.461V417.482ZM107.626 438.055H146.931V440.281H109.853V470.143H107.626V438.055ZM145.933 438.055H148.159V466.996C148.159 468.685 147.775 469.452 146.393 469.913C145.011 470.297 142.325 470.297 137.488 470.297C137.335 469.76 136.874 468.838 136.49 468.224C140.559 468.301 143.706 468.301 144.704 468.224C145.626 468.147 145.933 467.917 145.933 467.073V438.055ZM117.759 446.423H120.062V465.077H117.759V446.423ZM118.911 446.423H138.179V461.315H118.911V459.012H135.876V448.649H118.911V446.423ZM93.4246 406.427H95.6508V470.45H93.4246V406.427ZM80.9117 422.088H106.705V424.391H80.9117V422.088ZM93.4246 422.855L95.1902 423.469C92.4266 433.986 86.6691 447.421 81.449 454.022C81.0652 453.485 80.3743 452.641 79.8369 452.257C84.8267 446.039 90.7377 433.219 93.4246 422.855ZM103.404 402.666L105.554 404.355C99.7962 406.811 90.0468 408.807 81.9864 409.882C81.8328 409.421 81.449 408.654 81.0652 408.039C88.9721 406.811 98.6447 404.969 103.404 402.666ZM95.3437 428.536C97.1093 430.302 103.558 438.285 105.016 440.281L103.251 441.97C101.792 439.36 95.8811 431.607 94.0387 429.534L95.3437 428.536ZM177.253 406.274C176.946 408.116 176.869 409.498 176.793 411.494C176.486 420.552 175.872 439.744 175.872 453.101C175.872 462.236 181.859 465.614 190.457 465.614C205.887 465.614 213.794 457.17 219.244 449.57L220.933 451.489C215.406 458.705 206.425 467.764 190.227 467.764C180.708 467.764 173.569 464.156 173.569 452.18C173.569 439.744 174.413 421.013 174.413 411.494C174.413 409.498 174.336 407.732 174.029 406.274H177.253ZM235.498 415.793C238.338 415.716 240.181 415.563 241.716 415.409C245.247 414.948 261.598 413.183 275.8 412.031C284.628 411.264 290.616 410.88 295.452 410.726V413.106C290.77 413.029 283.937 413.183 280.253 414.488C267.586 419.094 261.215 432.528 261.215 441.586C261.215 458.935 277.412 463.925 289.388 464.232L288.543 466.382C276.184 466.305 259.065 459.857 259.065 442.2C259.065 429.304 267.433 418.48 276.338 414.027C267.049 415.025 243.635 417.175 235.882 418.71L235.498 415.793ZM354.158 407.041C353.313 407.809 351.087 409.882 350.319 410.573C344.792 415.793 332.817 425.389 326.598 430.455C321.455 434.908 321.225 436.366 326.982 441.049C335.196 447.651 347.786 458.091 356.23 466.842L354.234 468.608C353.16 467.38 351.855 465.998 350.396 464.539C344.178 458.321 332.202 448.035 324.91 442.124C318.001 436.52 319.152 434.063 325.293 428.766C330.897 424.007 343.641 414.104 348.861 408.654C349.705 407.732 351.164 405.89 351.701 404.892L354.158 407.041ZM408.508 406.811C408.124 408.039 407.664 410.419 407.433 411.724C406.282 417.558 404.9 425.542 402.751 433.065C399.987 444.12 394.767 460.164 390.929 467.84L388.165 466.919C392.848 458.782 397.838 443.659 400.678 432.758C402.52 425.772 404.747 414.948 405.284 411.417C405.514 409.959 405.668 407.886 405.591 406.504L408.508 406.811ZM394.076 420.936C401.599 420.936 413.344 419.708 422.403 417.251V419.708C412.884 421.781 401.753 423.086 393.923 423.086C390.929 423.086 388.319 423.009 385.401 422.779L385.325 420.399C388.626 420.859 391.62 420.936 394.076 420.936ZM418.488 430.302C422.249 429.995 426.932 429.764 431.768 429.764C436.374 429.764 441.057 429.918 444.895 430.378L444.742 432.835C440.75 432.298 436.451 431.991 432.075 431.991C427.776 431.991 423.094 432.298 418.488 432.758V430.302ZM417.49 448.342C416.722 451.182 416.338 453.485 416.338 455.788C416.338 459.626 418.181 464.156 431.768 464.156C436.681 464.156 441.901 463.618 445.893 462.697L445.817 465.307C441.825 465.921 436.758 466.382 431.692 466.382C420.484 466.382 414.189 463.388 414.189 455.942C414.189 453.639 414.496 451.566 415.187 448.111L417.49 448.342ZM436.451 409.268C438.447 411.955 441.287 416.484 442.976 419.861L440.827 420.936C439.368 417.866 436.451 413.106 434.378 410.266L436.451 409.268ZM444.281 406.504C446.431 409.344 449.501 414.027 451.037 417.098L448.887 418.173C447.122 414.641 444.512 410.419 442.285 407.502L444.281 406.504ZM497.48 410.649C497.02 409.114 496.559 407.195 496.022 405.66L498.785 405.276C499.092 408.27 501.165 415.409 502.931 420.476C505.31 427.308 509.533 434.908 513.524 440.358C514.292 441.433 515.213 442.431 516.134 443.352L514.599 445.194C511.528 444.273 502.624 443.582 498.018 443.352L498.171 441.279C503.007 441.663 509.302 442.2 512.45 442.584C508.688 437.364 503.698 428.536 500.935 421.013C499.246 416.407 498.171 412.952 497.48 410.649ZM469.23 419.017C480.515 420.322 493.028 420.476 501.395 419.631C506.692 419.094 515.136 417.635 521.047 415.409L521.278 417.866C515.444 419.554 507.383 420.859 502.317 421.474C493.028 422.548 480.745 422.395 469.384 421.474L469.23 419.017ZM477.521 441.817C475.448 445.578 473.99 448.802 473.99 452.794C473.99 460.931 481.59 464.616 493.872 464.77C501.088 464.846 507.613 464.156 512.91 462.851V465.384C507.69 466.305 501.626 466.996 493.795 466.919C480.361 466.766 471.764 462.313 471.764 452.564C471.764 448.726 473.376 445.118 475.141 441.279L477.521 441.817ZM547.071 412.722C546.918 413.643 546.764 416.407 546.687 418.249C546.534 422.855 546.687 431.223 547.302 438.285C548.76 452.871 553.903 462.313 560.045 462.313C564.19 462.313 568.412 455.481 570.946 446.192L572.865 447.804C568.719 460.394 564.19 464.693 559.968 464.693C553.903 464.693 547.302 457.784 545.229 438.592C544.538 432.374 544.384 422.702 544.384 418.48C544.384 417.021 544.384 413.797 544.001 412.569L547.071 412.722ZM588.602 415.255C595.05 424.237 600.194 437.671 601.652 451.873L599.426 452.871C597.891 437.594 592.67 424.621 586.452 416.177L588.602 415.255ZM624.452 446.576C630.516 446.576 635.429 451.489 635.429 457.554C635.429 463.618 630.516 468.531 624.452 468.531C618.464 468.531 613.474 463.618 613.474 457.554C613.474 451.489 618.464 446.576 624.452 446.576ZM624.452 466.228C629.288 466.228 633.126 462.39 633.126 457.554C633.126 452.794 629.288 448.879 624.452 448.879C619.692 448.879 615.777 452.794 615.777 457.554C615.777 462.39 619.692 466.228 624.452 466.228ZM42.0679 516.199C41.9144 517.351 41.8376 518.502 41.7609 521.035C41.6841 523.262 41.7609 532.934 41.7609 539.382C41.7609 551.281 42.7588 564.255 42.7588 568.477C42.7588 572.622 40.6861 578.38 30.7833 578.38C20.9572 578.38 15.3533 575.232 15.3533 568.554C15.3533 562.336 21.5713 558.344 31.9348 558.344C47.4416 558.344 60.108 567.556 65.6352 571.931L64.0998 574.234C57.4979 568.4 45.983 560.493 31.7045 560.493C22.4158 560.493 17.5027 564.101 17.5027 568.477C17.5027 572.699 20.8804 576.23 30.7833 576.23C35.5428 576.23 40.3023 574.695 40.3023 568.477C40.3023 561.261 39.6114 545.524 39.6114 539.382C39.6114 532.934 39.6114 526.639 39.6114 520.191C39.6114 518.963 39.5346 516.813 39.4579 516.199H42.0679ZM15.1997 525.718C19.6522 526.639 29.9388 527.407 35.466 527.407C44.5244 527.407 55.0414 526.563 63.7928 525.104V527.56C54.3505 528.482 44.5244 529.556 35.5428 529.556C29.7853 529.556 19.8057 528.789 15.1997 528.251V525.718ZM14.8927 541.762C20.8037 542.607 28.9409 543.144 35.0054 543.144C43.0659 543.144 53.5829 542.53 64.0998 540.764V543.221C53.8132 544.679 43.5265 545.293 35.0054 545.293C29.0177 545.293 20.8037 544.833 14.8927 544.219V541.762ZM108.394 516.506C108.01 517.734 107.55 520.114 107.319 521.419C106.168 527.253 104.786 535.237 102.637 542.76C99.8729 553.815 94.6528 569.859 90.8145 577.535L88.0509 576.614C92.7337 568.477 97.7235 553.354 100.564 542.453C102.406 535.467 104.632 524.643 105.17 521.112C105.4 519.654 105.554 517.581 105.477 516.199L108.394 516.506ZM93.9619 530.631C101.485 530.631 113.23 529.403 122.289 526.946V529.403C112.77 531.476 101.639 532.781 93.8084 532.781C90.8145 532.781 88.2044 532.704 85.2873 532.474L85.2106 530.094C88.5115 530.554 91.5054 530.631 93.9619 530.631ZM118.374 539.997C122.135 539.69 126.818 539.459 131.654 539.459C136.26 539.459 140.943 539.613 144.781 540.073L144.628 542.53C140.636 541.993 136.337 541.685 131.961 541.685C127.662 541.685 122.98 541.993 118.374 542.453V539.997ZM117.376 558.037C116.608 560.877 116.224 563.18 116.224 565.483C116.224 569.321 118.067 573.851 131.654 573.851C136.567 573.851 141.787 573.313 145.779 572.392L145.702 575.002C141.711 575.616 136.644 576.077 131.577 576.077C120.37 576.077 114.075 573.083 114.075 565.637C114.075 563.334 114.382 561.261 115.073 557.806L117.376 558.037ZM202.049 512.207H204.352V565.406H202.049V512.207ZM174.49 545.293L221.24 527.253L222.162 529.326L175.334 547.366L174.49 545.293ZM184.546 518.963H186.772V572.853C186.772 577.075 188.077 578.303 193.912 578.303C196.905 578.303 213.794 578.303 217.863 578.303C222.852 578.303 223.62 575.923 224.158 566.558C224.848 567.018 225.77 567.479 226.537 567.632C225.846 577.382 224.848 580.529 217.479 580.529C215.713 580.529 196.061 580.529 194.295 580.529C186.849 580.529 184.546 579.071 184.546 572.776V518.963ZM220.473 528.328H219.705L220.78 527.177L221.24 526.639L222.929 527.484L222.776 528.021C222.776 542.53 222.469 555.35 221.471 558.651C220.626 561.798 218.784 562.719 216.634 562.796C214.715 562.873 211.645 562.873 209.725 562.796C209.572 562.105 209.265 561.261 208.881 560.57C211.491 560.724 214.869 560.647 215.944 560.647C217.556 560.647 218.63 560.263 219.321 557.806C220.242 554.659 220.473 542.223 220.473 528.328ZM175.872 512.514L178.021 513.128C172.878 526.025 165.124 538.231 156.91 546.675C156.603 546.215 155.836 545.293 155.298 544.91C163.512 537.003 171.189 524.874 175.872 512.514ZM167.35 530.861L169.423 528.712L169.577 528.789V581.22H167.35V530.861ZM271.446 523.799C270.524 531.936 268.989 540.995 266.84 548.287C262.08 564.332 256.476 571.01 250.642 571.01C245.499 571.01 238.897 564.792 238.897 552.356C238.897 536.696 253.098 522.801 270.755 522.801C287.72 522.801 298.544 534.93 298.544 549.285C298.544 565.329 287.259 575.386 270.141 577.151L268.836 574.849C270.755 574.772 273.288 574.465 274.823 574.158C284.726 572.085 296.395 564.408 296.395 549.132C296.395 536.542 286.952 524.95 270.755 524.95C253.252 524.95 241.046 539.382 241.046 552.279C241.046 563.871 246.804 568.707 250.795 568.707C254.711 568.707 260.007 563.257 264.613 547.673C266.84 540.227 268.452 531.783 269.143 523.876L271.446 523.799ZM343.913 515.124H346.216C345.602 526.255 344.297 565.406 312.132 580.683C311.748 580.145 310.98 579.454 310.52 579.071C342.378 564.178 343.452 525.411 343.913 515.124ZM345.986 516.199C346.293 521.496 349.133 564.715 380.914 578.917C380.377 579.301 379.609 580.145 379.149 580.76C347.214 566.02 344.297 522.494 343.913 516.276L345.986 516.199ZM424.978 523.799C424.057 531.936 422.522 540.995 420.372 548.287C415.613 564.332 410.009 571.01 404.174 571.01C399.031 571.01 392.429 564.792 392.429 552.356C392.429 536.696 406.631 522.801 424.287 522.801C441.253 522.801 452.077 534.93 452.077 549.285C452.077 565.329 440.792 575.386 423.673 577.151L422.368 574.849C424.287 574.772 426.82 574.465 428.356 574.158C438.259 572.085 449.927 564.408 449.927 549.132C449.927 536.542 440.485 524.95 424.287 524.95C406.784 524.95 394.579 539.382 394.579 552.279C394.579 563.871 400.336 568.707 404.328 568.707C408.243 568.707 413.54 563.257 418.146 547.673C420.372 540.227 421.984 531.783 422.675 523.876L424.978 523.799ZM500.649 576.998C496.81 576.998 492.204 575.002 488.443 571.931H488.213L487.829 576H485.526V515.048H488.289V533.011L488.059 541.148C492.281 537.617 497.271 534.546 502.338 534.546C513.315 534.546 518.612 542.683 518.612 555.196C518.612 568.938 510.321 576.998 500.649 576.998ZM500.879 574.465C509.477 574.465 515.695 566.481 515.695 555.196C515.695 544.91 512.01 537.079 502.107 537.079C497.962 537.079 493.279 539.613 488.289 544.065V569.014C492.895 573.006 497.655 574.465 500.879 574.465ZM546 576.998C535.79 576.998 527.499 569.091 527.499 555.887C527.499 542.683 535.944 534.546 544.925 534.546C554.291 534.546 560.202 541.225 560.202 553.2C560.202 554.045 560.202 554.889 560.048 555.964H530.417C530.417 566.635 536.635 574.465 546.154 574.465C550.76 574.465 554.214 573.006 557.285 570.78L558.513 573.16C555.442 575.002 551.988 576.998 546 576.998ZM530.417 553.431H557.515C557.515 542.453 552.525 537.079 544.925 537.079C537.709 537.079 531.261 543.221 530.417 553.431ZM581.032 576.998C574.967 576.998 569.901 574.465 566.293 571.471L568.058 569.245C571.436 572.162 575.198 574.465 581.185 574.465C587.941 574.465 591.395 570.55 591.395 565.944C591.395 560.647 586.022 558.267 581.262 556.578C575.121 554.352 568.519 552.049 568.519 545.063C568.519 539.459 572.895 534.546 581.262 534.546C585.331 534.546 589.63 536.235 592.47 538.692L590.858 540.764C588.171 538.768 585.331 537.079 581.109 537.079C574.43 537.079 571.359 540.918 571.359 544.91C571.359 549.746 575.965 551.588 580.802 553.431C587.25 555.887 594.236 557.883 594.236 565.79C594.236 571.778 589.553 576.998 581.032 576.998ZM614.114 576.998C606.591 576.998 604.595 572.315 604.595 565.253V538.077H598.147V535.928L604.595 535.544L604.902 523.722H607.282V535.544H619.257V538.077H607.282V565.637C607.282 570.857 608.433 574.465 614.344 574.465C615.88 574.465 618.029 573.851 619.488 573.16L620.409 575.463C618.029 576.307 615.496 576.998 614.114 576.998ZM671.436 516.199C670.745 519.423 670.054 523.262 668.135 528.098C665.986 533.625 662.455 539.613 658.539 544.526C662.378 541.839 667.137 540.304 671.206 540.304C676.733 540.304 681.109 543.528 681.109 548.902C681.109 552.663 681.186 562.029 681.262 566.635H678.652C678.883 562.105 678.883 552.817 678.806 549.055C678.729 544.986 675.582 542.53 670.822 542.53C665.295 542.53 660.382 544.833 656.313 548.441C654.164 550.36 652.014 553.2 649.481 556.041L647.178 554.429C659.461 542.223 663.836 532.781 665.832 528.175C667.675 523.876 668.749 519.346 668.98 515.969L671.436 516.199ZM647.792 525.641C652.091 526.179 657.081 526.409 660.228 526.409C670.822 526.409 683.488 525.641 694.005 523.799V526.255C683.412 528.021 670.285 528.635 660.075 528.635C656.62 528.635 652.091 528.482 647.792 528.251V525.641ZM704.292 540.918C702.757 541.378 701.375 541.993 699.84 542.607C694.005 544.91 686.252 547.98 678.652 552.049C670.361 556.348 663.376 561.338 663.376 567.709C663.376 575.463 671.59 576.154 679.957 576.154C685.408 576.154 693.315 575.616 700.07 574.618L699.993 577.075C693.468 577.842 685.791 578.38 679.727 578.38C669.824 578.38 661.15 576.614 661.15 567.863C661.15 559.879 669.287 554.659 678.345 549.899C685.791 545.984 693.391 543.067 698.995 540.457C700.607 539.69 701.682 539.229 703.064 538.461L704.292 540.918ZM732.772 521.496C734.615 521.649 736.38 521.649 737.916 521.649C741.601 521.649 753.576 520.959 756.493 520.728C757.491 520.652 758.182 520.498 758.873 520.268L760.485 521.649C760.024 522.187 759.641 522.724 759.027 523.645C756.724 527.253 752.501 537.003 748.817 544.833C745.746 551.358 740.986 563.103 737.609 567.786C735.229 570.933 732.926 571.701 730.239 571.701C725.556 571.701 722.102 568.093 722.102 563.103C722.102 552.279 732.158 544.065 746.897 544.065C763.556 544.065 778.372 552.893 786.816 559.188L785.588 561.645C777.067 554.505 762.481 546.138 746.667 546.138C732.465 546.138 724.328 554.429 724.328 562.95C724.328 567.249 727.245 569.552 730.239 569.552C732.235 569.552 733.77 568.938 735.536 566.788C739.374 562.182 743.443 551.512 746.59 544.679C749.968 537.31 753.73 529.019 756.724 522.878C753.653 523.031 741.601 523.645 738.069 523.799C736.304 523.876 734.615 524.029 732.926 524.183L732.772 521.496ZM778.218 537.003C777.143 558.958 772.614 571.394 755.188 579.762L753.269 577.996C770.388 570.933 774.687 556.348 775.685 542.53C775.762 540.918 775.838 538.768 775.762 536.772L778.218 537.003ZM799.175 526.793C802.016 526.716 803.858 526.563 805.393 526.409C808.925 525.948 825.276 524.183 839.478 523.031C848.306 522.264 854.294 521.88 859.13 521.726V524.106C854.447 524.029 847.615 524.183 843.93 525.488C831.264 530.094 824.892 543.528 824.892 552.586C824.892 569.935 841.09 574.925 853.065 575.232L852.221 577.382C839.861 577.305 822.743 570.857 822.743 553.2C822.743 540.304 831.11 529.48 840.015 525.027C830.726 526.025 807.313 528.175 799.559 529.71L799.175 526.793ZM886.934 579.301C881.714 572.853 875.035 566.327 869.508 562.029L871.427 560.186C877.031 564.639 883.48 571.01 889.16 577.459L886.934 579.301ZM36.8478 626.124H39.1508C38.5367 637.255 37.2316 676.406 5.06657 691.683C4.68274 691.145 3.91508 690.454 3.45448 690.071C35.3125 675.178 36.3872 636.411 36.8478 626.124ZM38.9205 627.199C39.2276 632.496 42.0679 675.715 73.8492 689.917C73.3118 690.301 72.5441 691.145 72.0835 691.76C40.1488 677.02 37.2316 633.494 36.8478 627.276L38.9205 627.199ZM92.8872 639.175H145.779V641.401H92.8872V639.175ZM89.2792 661.59H143.169V663.817H89.2792V661.59ZM81.3723 687.461H149.157V689.687H81.3723V687.461ZM114.151 623.284H116.454V688.612H114.151V623.284ZM97.4164 624.819L99.6426 625.28C96.3417 637.179 91.1216 648.079 84.8267 655.449C84.3661 655.065 83.2914 654.374 82.754 654.144C89.2792 646.928 94.3458 636.181 97.4164 624.819ZM186.849 627.199C186.158 630.423 185.467 634.262 183.548 639.098C181.399 644.625 177.867 650.613 173.952 655.526C177.791 652.839 182.55 651.304 186.619 651.304C192.146 651.304 196.522 654.528 196.522 659.902C196.522 663.663 196.598 673.029 196.675 677.635H194.065C194.295 673.105 194.295 663.817 194.219 660.055C194.142 655.986 190.994 653.53 186.235 653.53C180.708 653.53 175.795 655.833 171.726 659.441C169.577 661.36 167.427 664.2 164.894 667.041L162.591 665.429C174.874 653.223 179.249 643.781 181.245 639.175C183.088 634.876 184.162 630.346 184.393 626.969L186.849 627.199ZM163.205 636.641C167.504 637.179 172.494 637.409 175.641 637.409C186.235 637.409 198.901 636.641 209.418 634.799V637.255C198.825 639.021 185.698 639.635 175.488 639.635C172.033 639.635 167.504 639.482 163.205 639.251V636.641ZM219.705 651.918C218.17 652.378 216.788 652.993 215.253 653.607C209.418 655.91 201.665 658.98 194.065 663.049C185.774 667.348 178.789 672.338 178.789 678.709C178.789 686.463 187.003 687.154 195.37 687.154C200.821 687.154 208.728 686.616 215.483 685.618L215.406 688.075C208.881 688.842 201.204 689.38 195.14 689.38C185.237 689.38 176.562 687.614 176.562 678.863C176.562 670.879 184.7 665.659 193.758 660.899C201.204 656.984 208.804 654.067 214.408 651.457C216.02 650.69 217.095 650.229 218.477 649.461L219.705 651.918ZM235.826 656.293H301.845V658.52H235.826V656.293ZM234.214 687.921H303.38V690.147H234.214V687.921ZM247.264 666.12V675.485H290.177V666.12H247.264ZM244.961 663.893H292.48V677.711H244.961V663.893ZM252.715 679.4L254.634 678.632C256.63 681.166 258.472 684.62 259.24 687L257.09 687.921C256.399 685.465 254.634 681.933 252.715 679.4ZM282.96 678.479L285.033 679.4C283.344 682.394 281.348 685.541 279.583 687.844L277.817 687C279.506 684.62 281.809 680.859 282.96 678.479ZM244.577 641.017V648.694H292.403V641.017H244.577ZM244.577 631.268V638.791H292.403V631.268H244.577ZM242.351 628.965H294.629V650.92H242.351V628.965ZM258.242 623.054H260.468V650.152H258.242V623.054ZM275.284 623.054H277.587V650.152H275.284V623.054ZM338.846 627.813C338.693 628.658 338.539 629.502 338.386 630.577C338.079 632.649 337.004 640.48 335.699 646.084C333.012 656.831 328.253 673.182 318.887 688.228L316.431 687.23C324.798 676.099 331.323 655.372 333.319 646.237C334.701 640.94 335.929 633.647 336.006 627.583L338.846 627.813ZM365.254 637.025C370.09 642.783 376.999 656.447 379.763 663.356L377.613 664.507C375.08 657.291 368.555 644.011 363.258 638.177L365.254 637.025ZM314.665 645.777C316.738 645.853 318.119 645.853 320.192 645.777C325.489 645.623 342.147 643.857 346.83 643.857C352.434 643.857 357.884 645.469 357.884 655.142C357.884 664.354 356.503 676.329 353.355 682.471C351.052 687.384 347.674 688.228 343.529 688.228C340.612 688.228 336.927 687.614 334.701 687.077L334.317 684.39C337.772 685.541 341.456 685.925 343.759 685.925C346.83 685.925 349.517 685.465 351.436 681.319C354.2 675.255 355.581 664.584 355.581 655.526C355.581 647.619 351.743 645.93 346.753 645.93C340.996 645.93 325.489 647.696 320.346 648.079C319.041 648.233 316.661 648.463 315.049 648.694L314.665 645.777ZM419.451 637.025C426.744 638.56 442.481 638.33 449.543 637.025V639.558C442.481 640.48 426.667 640.48 419.451 639.558V637.025ZM419.297 666.81C418.453 669.804 417.992 672.261 417.992 674.41C417.992 678.018 419.988 682.778 433.115 682.778C440.024 682.778 446.242 682.164 451.923 680.782L452 683.315C447.394 684.313 440.715 685.004 433.499 685.004C420.986 685.004 415.843 681.166 415.843 674.564C415.843 672.491 416.227 670.035 416.994 666.503L419.297 666.81ZM402.025 630.346C401.718 631.344 401.411 632.342 401.104 633.724C399.261 642.859 397.189 654.912 397.189 664.507C397.189 670.418 397.573 674.948 398.263 680.935C399.722 676.637 402.102 670.035 403.56 666.35L405.249 667.578C403.56 672.031 400.49 679.938 399.876 683.162C399.645 684.236 399.492 685.465 399.568 686.463C399.645 687.23 399.799 688.075 399.876 688.612L397.726 688.842C396.191 683.162 395.039 674.871 395.039 664.507C395.039 653.53 397.803 640.173 398.801 633.417C399.031 631.959 399.108 630.961 399.108 630.039L402.025 630.346ZM484.318 628.274C484.011 630.116 483.935 631.498 483.858 633.494C483.551 642.552 482.937 661.744 482.937 675.101C482.937 684.236 488.924 687.614 497.522 687.614C512.952 687.614 520.859 679.17 526.31 671.57L527.998 673.489C522.471 680.705 513.49 689.764 497.292 689.764C487.773 689.764 480.634 686.156 480.634 674.18C480.634 661.744 481.478 643.013 481.478 633.494C481.478 631.498 481.401 629.732 481.094 628.274H484.318ZM542.563 637.793C545.403 637.716 547.246 637.563 548.781 637.409C552.312 636.948 568.664 635.183 582.865 634.031C591.693 633.264 597.681 632.88 602.517 632.726V635.106C597.835 635.029 591.003 635.183 587.318 636.488C574.651 641.094 568.28 654.528 568.28 663.586C568.28 680.935 584.477 685.925 596.453 686.232L595.609 688.382C583.249 688.305 566.13 681.857 566.13 664.2C566.13 651.304 574.498 640.48 583.403 636.027C574.114 637.025 550.7 639.175 542.947 640.71L542.563 637.793ZM661.223 629.041C660.378 629.809 658.152 631.882 657.384 632.573C651.857 637.793 639.882 647.389 633.664 652.455C628.52 656.908 628.29 658.366 634.047 663.049C642.261 669.651 654.851 680.091 663.295 688.842L661.299 690.608C660.225 689.38 658.92 687.998 657.461 686.539C651.243 680.321 639.268 670.035 631.975 664.124C625.066 658.52 626.217 656.063 632.359 650.766C637.963 646.007 650.706 636.104 655.926 630.654C656.77 629.732 658.229 627.89 658.766 626.892L661.223 629.041ZM715.573 628.811C715.189 630.039 714.729 632.419 714.498 633.724C713.347 639.558 711.965 647.542 709.816 655.065C707.052 666.12 701.832 682.164 697.994 689.84L695.23 688.919C699.913 680.782 704.903 665.659 707.743 654.758C709.585 647.772 711.812 636.948 712.349 633.417C712.579 631.959 712.733 629.886 712.656 628.504L715.573 628.811ZM701.141 642.936C708.664 642.936 720.409 641.708 729.468 639.251V641.708C719.949 643.781 708.818 645.086 700.988 645.086C697.994 645.086 695.384 645.009 692.467 644.779L692.39 642.399C695.691 642.859 698.685 642.936 701.141 642.936ZM725.553 652.302C729.314 651.995 733.997 651.764 738.833 651.764C743.439 651.764 748.122 651.918 751.96 652.378L751.807 654.835C747.815 654.298 743.516 653.991 739.14 653.991C734.842 653.991 730.159 654.298 725.553 654.758V652.302ZM724.555 670.342C723.787 673.182 723.403 675.485 723.403 677.788C723.403 681.626 725.246 686.156 738.833 686.156C743.746 686.156 748.967 685.618 752.958 684.697L752.882 687.307C748.89 687.921 743.823 688.382 738.757 688.382C727.549 688.382 721.254 685.388 721.254 677.942C721.254 675.639 721.561 673.566 722.252 670.111L724.555 670.342ZM743.516 631.268C745.512 633.955 748.352 638.484 750.041 641.861L747.892 642.936C746.433 639.866 743.516 635.106 741.443 632.266L743.516 631.268ZM751.346 628.504C753.496 631.344 756.566 636.027 758.102 639.098L755.952 640.173C754.187 636.641 751.577 632.419 749.35 629.502L751.346 628.504ZM804.545 632.649C804.085 631.114 803.624 629.195 803.087 627.66L805.85 627.276C806.157 630.27 808.23 637.409 809.996 642.476C812.375 649.308 816.598 656.908 820.589 662.358C821.357 663.433 822.278 664.431 823.2 665.352L821.664 667.194C818.594 666.273 809.689 665.582 805.083 665.352L805.236 663.279C810.072 663.663 816.367 664.2 819.515 664.584C815.753 659.364 810.763 650.536 808 643.013C806.311 638.407 805.236 634.952 804.545 632.649ZM776.295 641.017C787.58 642.322 800.093 642.476 808.46 641.631C813.757 641.094 822.202 639.635 828.113 637.409L828.343 639.866C822.509 641.554 814.448 642.859 809.382 643.474C800.093 644.548 787.81 644.395 776.449 643.474L776.295 641.017ZM784.586 663.817C782.513 667.578 781.055 670.802 781.055 674.794C781.055 682.931 788.655 686.616 800.937 686.77C808.153 686.846 814.678 686.156 819.975 684.851V687.384C814.755 688.305 808.691 688.996 800.861 688.919C787.426 688.766 778.829 684.313 778.829 674.564C778.829 670.726 780.441 667.118 782.206 663.279L784.586 663.817ZM854.136 634.722C853.983 635.643 853.829 638.407 853.753 640.249C853.599 644.855 853.753 653.223 854.367 660.285C855.825 674.871 860.969 684.313 867.11 684.313C871.255 684.313 875.477 677.481 878.011 668.192L879.93 669.804C875.784 682.394 871.255 686.693 867.033 686.693C860.969 686.693 854.367 679.784 852.294 660.592C851.603 654.374 851.45 644.702 851.45 640.48C851.45 639.021 851.45 635.797 851.066 634.569L854.136 634.722ZM895.667 637.255C902.115 646.237 907.259 659.671 908.717 673.873L906.491 674.871C904.956 659.594 899.736 646.621 893.517 638.177L895.667 637.255ZM931.517 668.576C937.581 668.576 942.494 673.489 942.494 679.554C942.494 685.618 937.581 690.531 931.517 690.531C925.529 690.531 920.539 685.618 920.539 679.554C920.539 673.489 925.529 668.576 931.517 668.576ZM931.517 688.228C936.353 688.228 940.191 684.39 940.191 679.554C940.191 674.794 936.353 670.879 931.517 670.879C926.757 670.879 922.842 674.794 922.842 679.554C922.842 684.39 926.757 688.228 931.517 688.228Z" fill="black"/>
<path d="M245.67 108.959C242.125 108.959 238.695 108 235.382 106.082C232.127 104.164 229.627 101.635 227.883 98.4961V108H225.093V42.6065H227.883V78.7037C229.453 75.3904 231.894 72.7456 235.207 70.7693C238.521 68.793 242.008 67.8048 245.67 67.8048C249.449 67.8048 252.907 68.7348 256.046 70.5949C259.243 72.455 261.772 74.9545 263.632 78.0934C265.492 81.2323 266.422 84.6618 266.422 88.382C266.422 92.1021 265.492 95.5316 263.632 98.6705C261.772 101.809 259.243 104.309 256.046 106.169C252.907 108.029 249.449 108.959 245.67 108.959ZM245.845 106.518C249.042 106.518 252.006 105.704 254.738 104.076C257.47 102.391 259.621 100.182 261.19 97.4498C262.818 94.6597 263.632 91.6371 263.632 88.382C263.632 85.1849 262.818 82.1914 261.19 79.4012C259.563 76.6111 257.383 74.4023 254.651 72.7747C251.919 71.089 248.955 70.2462 245.757 70.2462C242.56 70.2462 239.567 71.089 236.777 72.7747C234.045 74.4604 231.836 76.6983 230.15 79.4884C228.523 82.2786 227.709 85.2721 227.709 88.4691C227.709 91.6662 228.523 94.6597 230.15 97.4498C231.836 100.182 234.074 102.391 236.864 104.076C239.654 105.704 242.648 106.518 245.845 106.518ZM294.255 106.605C297.278 106.605 300.155 105.82 302.887 104.251C305.619 102.681 307.886 100.531 309.688 97.7986V102.245C307.537 104.629 305.183 106.372 302.625 107.477C300.068 108.523 297.161 109.046 293.906 109.046C290.302 109.046 286.902 108.087 283.705 106.169C280.566 104.251 278.037 101.693 276.119 98.4961C274.259 95.2991 273.329 91.8987 273.329 88.2948C273.329 84.4002 274.259 80.9126 276.119 77.8318C277.979 74.6929 280.508 72.2516 283.705 70.5077C286.96 68.7639 290.564 67.892 294.517 67.892C300.562 67.892 305.706 70.2752 309.949 75.0417L282.571 102.071C284.49 103.64 286.35 104.803 288.152 105.559C289.954 106.256 291.988 106.605 294.255 106.605ZM276.119 88.0332C276.119 92.8578 277.718 96.9848 280.915 100.414L306.462 75.0417C304.544 73.356 302.683 72.1644 300.881 71.4668C299.08 70.7112 296.929 70.3333 294.429 70.3333C290.884 70.3333 287.716 71.1181 284.925 72.6875C282.193 74.1988 280.043 76.2914 278.473 78.9653C276.904 81.6392 276.119 84.6618 276.119 88.0332ZM328.174 108.959C325.384 108.959 322.914 108.494 320.763 107.564C318.612 106.576 317.072 105.326 316.142 103.815V99.1937C317.246 101.693 318.758 103.553 320.676 104.774C322.594 105.936 325.036 106.518 328 106.518C330.848 106.518 333.144 105.646 334.888 103.902C336.632 102.1 337.504 99.804 337.504 97.0139C337.504 94.6307 337.01 92.7996 336.022 91.5208C335.033 90.1839 333.435 88.847 331.226 87.51L327.913 85.5918C325.53 84.1386 323.728 83.0052 322.507 82.1914C321.344 81.3195 320.414 80.3603 319.717 79.3141C319.019 78.2096 318.671 76.9308 318.671 75.4776C318.671 73.1525 319.484 71.2925 321.112 69.8974C322.739 68.5023 324.861 67.8048 327.477 67.8048C330.674 67.8048 333.348 68.5314 335.498 69.9846V73.821C333.697 71.4378 331.11 70.2462 327.738 70.2462C325.878 70.2462 324.367 70.7112 323.205 71.6412C322.042 72.5713 321.461 73.7629 321.461 75.2161C321.461 76.4949 321.809 77.6284 322.507 78.6165C323.205 79.5466 324.164 80.4185 325.384 81.2323C326.663 82.046 328.756 83.2667 331.662 84.8943C334.627 86.58 336.806 88.3238 338.201 90.1258C339.596 91.8696 340.294 94.1656 340.294 97.0139C340.294 100.618 339.102 103.524 336.719 105.733C334.394 107.884 331.546 108.959 328.174 108.959ZM363.021 108.523C358.72 108.523 355.145 107.215 352.296 104.6C349.506 101.984 348.111 98.3799 348.111 93.7878V52.9823H350.901V68.7639H362.934V71.2053H350.901V93.7878C350.901 97.6242 352.035 100.647 354.302 102.856C356.627 105.006 359.533 106.082 363.021 106.082V108.523Z" fill="black"/>
<line x1="207.85" y1="112" x2="207.85" y2="16" stroke="black" stroke-width="1.5"/>
<path d="M207.931 0L210.385 7.9463H218.326L211.901 12.8574L214.356 20.8037L207.931 15.8926L201.506 20.8037L203.96 12.8574L197.535 7.9463H205.477L207.931 0Z" fill="black"/>
</svg>
